M48
; DRILL file {KiCad (5.1.5)-3} date 4/24/2020 11:12:00 AM
; FORMAT={-:-/ absolute / inch / decimal}
; #@! TF.CreationDate,2020-04-24T11:12:00-05:00
; #@! TF.GenerationSoftware,Kicad,Pcbnew,(5.1.5)-3
; #@! TF.FileFunction,Plated,1,2,PTH
FMAT,2
INCH
T1C0.0157
T2C0.0394
%
G90
G05
T1
X5.3Y-2.6784
X5.3184Y-3.2208
X5.375Y-3.15
X5.3862Y-3.6533
X5.501Y-2.7138
X5.525Y-2.925
X5.525Y-3.0
X5.525Y-3.05
X5.575Y-3.15
X5.5793Y-3.5654
X5.6Y-2.925
X5.6Y-3.0
X5.6Y-3.05
X5.65Y-2.925
X5.65Y-3.0
X5.65Y-3.05
X5.675Y-2.775
X5.7732Y-3.0879
X5.775Y-2.775
X6.275Y-2.625
X6.275Y-2.975
X6.3Y-3.6
X6.3627Y-3.6557
X6.365Y-3.8991
X6.4204Y-3.3885
X6.4404Y-3.6514
X6.5Y-2.625
X6.5Y-2.75
X6.5Y-2.8
X6.5Y-2.975
X6.55Y-2.75
X6.55Y-2.8
X6.5614Y-3.8916
X6.6374Y-4.1302
X6.675Y-2.625
X6.675Y-2.975
X6.75Y-2.75
X6.75Y-2.8
X6.8Y-2.75
X6.8Y-2.8
X6.875Y-2.625
X6.875Y-2.975
X7.075Y-2.625
X7.075Y-2.975
T2
X7.3Y-3.55
X7.3Y-3.65
X7.3Y-3.15
X7.3Y-3.25
X7.3Y-3.95
X7.3Y-4.05
X7.3Y-2.725
X7.3Y-2.825
X5.175Y-3.8
X5.275Y-3.8
X5.375Y-3.8
T0
M30
