G04 #@! TF.GenerationSoftware,KiCad,Pcbnew,(5.1.5)-3*
G04 #@! TF.CreationDate,2020-04-24T11:10:39-05:00*
G04 #@! TF.ProjectId,ESP32 Wroom energy meter,45535033-3220-4577-926f-6f6d20656e65,rev?*
G04 #@! TF.SameCoordinates,Original*
G04 #@! TF.FileFunction,Soldermask,Top*
G04 #@! TF.FilePolarity,Negative*
%FSLAX46Y46*%
G04 Gerber Fmt 4.6, Leading zero omitted, Abs format (unit mm)*
G04 Created by KiCad (PCBNEW (5.1.5)-3) date 2020-04-24 11:10:39*
%MOMM*%
%LPD*%
G04 APERTURE LIST*
%ADD10C,2.000000*%
%ADD11C,0.100000*%
%ADD12R,2.000000X1.500000*%
%ADD13R,2.000000X3.800000*%
%ADD14R,0.900000X2.000000*%
%ADD15R,2.000000X0.900000*%
%ADD16R,5.000000X5.000000*%
%ADD17R,2.000000X1.600000*%
%ADD18O,1.700000X1.700000*%
%ADD19R,1.700000X1.700000*%
G04 APERTURE END LIST*
D10*
X171450000Y-81915000D03*
X133350000Y-104140000D03*
D11*
G36*
X165874703Y-94950722D02*
G01*
X165889264Y-94952882D01*
X165903543Y-94956459D01*
X165917403Y-94961418D01*
X165930710Y-94967712D01*
X165943336Y-94975280D01*
X165955159Y-94984048D01*
X165966066Y-94993934D01*
X165975952Y-95004841D01*
X165984720Y-95016664D01*
X165992288Y-95029290D01*
X165998582Y-95042597D01*
X166003541Y-95056457D01*
X166007118Y-95070736D01*
X166009278Y-95085297D01*
X166010000Y-95100000D01*
X166010000Y-95400000D01*
X166009278Y-95414703D01*
X166007118Y-95429264D01*
X166003541Y-95443543D01*
X165998582Y-95457403D01*
X165992288Y-95470710D01*
X165984720Y-95483336D01*
X165975952Y-95495159D01*
X165966066Y-95506066D01*
X165955159Y-95515952D01*
X165943336Y-95524720D01*
X165930710Y-95532288D01*
X165917403Y-95538582D01*
X165903543Y-95543541D01*
X165889264Y-95547118D01*
X165874703Y-95549278D01*
X165860000Y-95550000D01*
X164210000Y-95550000D01*
X164195297Y-95549278D01*
X164180736Y-95547118D01*
X164166457Y-95543541D01*
X164152597Y-95538582D01*
X164139290Y-95532288D01*
X164126664Y-95524720D01*
X164114841Y-95515952D01*
X164103934Y-95506066D01*
X164094048Y-95495159D01*
X164085280Y-95483336D01*
X164077712Y-95470710D01*
X164071418Y-95457403D01*
X164066459Y-95443543D01*
X164062882Y-95429264D01*
X164060722Y-95414703D01*
X164060000Y-95400000D01*
X164060000Y-95100000D01*
X164060722Y-95085297D01*
X164062882Y-95070736D01*
X164066459Y-95056457D01*
X164071418Y-95042597D01*
X164077712Y-95029290D01*
X164085280Y-95016664D01*
X164094048Y-95004841D01*
X164103934Y-94993934D01*
X164114841Y-94984048D01*
X164126664Y-94975280D01*
X164139290Y-94967712D01*
X164152597Y-94961418D01*
X164166457Y-94956459D01*
X164180736Y-94952882D01*
X164195297Y-94950722D01*
X164210000Y-94950000D01*
X165860000Y-94950000D01*
X165874703Y-94950722D01*
G37*
G36*
X165874703Y-96220722D02*
G01*
X165889264Y-96222882D01*
X165903543Y-96226459D01*
X165917403Y-96231418D01*
X165930710Y-96237712D01*
X165943336Y-96245280D01*
X165955159Y-96254048D01*
X165966066Y-96263934D01*
X165975952Y-96274841D01*
X165984720Y-96286664D01*
X165992288Y-96299290D01*
X165998582Y-96312597D01*
X166003541Y-96326457D01*
X166007118Y-96340736D01*
X166009278Y-96355297D01*
X166010000Y-96370000D01*
X166010000Y-96670000D01*
X166009278Y-96684703D01*
X166007118Y-96699264D01*
X166003541Y-96713543D01*
X165998582Y-96727403D01*
X165992288Y-96740710D01*
X165984720Y-96753336D01*
X165975952Y-96765159D01*
X165966066Y-96776066D01*
X165955159Y-96785952D01*
X165943336Y-96794720D01*
X165930710Y-96802288D01*
X165917403Y-96808582D01*
X165903543Y-96813541D01*
X165889264Y-96817118D01*
X165874703Y-96819278D01*
X165860000Y-96820000D01*
X164210000Y-96820000D01*
X164195297Y-96819278D01*
X164180736Y-96817118D01*
X164166457Y-96813541D01*
X164152597Y-96808582D01*
X164139290Y-96802288D01*
X164126664Y-96794720D01*
X164114841Y-96785952D01*
X164103934Y-96776066D01*
X164094048Y-96765159D01*
X164085280Y-96753336D01*
X164077712Y-96740710D01*
X164071418Y-96727403D01*
X164066459Y-96713543D01*
X164062882Y-96699264D01*
X164060722Y-96684703D01*
X164060000Y-96670000D01*
X164060000Y-96370000D01*
X164060722Y-96355297D01*
X164062882Y-96340736D01*
X164066459Y-96326457D01*
X164071418Y-96312597D01*
X164077712Y-96299290D01*
X164085280Y-96286664D01*
X164094048Y-96274841D01*
X164103934Y-96263934D01*
X164114841Y-96254048D01*
X164126664Y-96245280D01*
X164139290Y-96237712D01*
X164152597Y-96231418D01*
X164166457Y-96226459D01*
X164180736Y-96222882D01*
X164195297Y-96220722D01*
X164210000Y-96220000D01*
X165860000Y-96220000D01*
X165874703Y-96220722D01*
G37*
G36*
X165874703Y-97490722D02*
G01*
X165889264Y-97492882D01*
X165903543Y-97496459D01*
X165917403Y-97501418D01*
X165930710Y-97507712D01*
X165943336Y-97515280D01*
X165955159Y-97524048D01*
X165966066Y-97533934D01*
X165975952Y-97544841D01*
X165984720Y-97556664D01*
X165992288Y-97569290D01*
X165998582Y-97582597D01*
X166003541Y-97596457D01*
X166007118Y-97610736D01*
X166009278Y-97625297D01*
X166010000Y-97640000D01*
X166010000Y-97940000D01*
X166009278Y-97954703D01*
X166007118Y-97969264D01*
X166003541Y-97983543D01*
X165998582Y-97997403D01*
X165992288Y-98010710D01*
X165984720Y-98023336D01*
X165975952Y-98035159D01*
X165966066Y-98046066D01*
X165955159Y-98055952D01*
X165943336Y-98064720D01*
X165930710Y-98072288D01*
X165917403Y-98078582D01*
X165903543Y-98083541D01*
X165889264Y-98087118D01*
X165874703Y-98089278D01*
X165860000Y-98090000D01*
X164210000Y-98090000D01*
X164195297Y-98089278D01*
X164180736Y-98087118D01*
X164166457Y-98083541D01*
X164152597Y-98078582D01*
X164139290Y-98072288D01*
X164126664Y-98064720D01*
X164114841Y-98055952D01*
X164103934Y-98046066D01*
X164094048Y-98035159D01*
X164085280Y-98023336D01*
X164077712Y-98010710D01*
X164071418Y-97997403D01*
X164066459Y-97983543D01*
X164062882Y-97969264D01*
X164060722Y-97954703D01*
X164060000Y-97940000D01*
X164060000Y-97640000D01*
X164060722Y-97625297D01*
X164062882Y-97610736D01*
X164066459Y-97596457D01*
X164071418Y-97582597D01*
X164077712Y-97569290D01*
X164085280Y-97556664D01*
X164094048Y-97544841D01*
X164103934Y-97533934D01*
X164114841Y-97524048D01*
X164126664Y-97515280D01*
X164139290Y-97507712D01*
X164152597Y-97501418D01*
X164166457Y-97496459D01*
X164180736Y-97492882D01*
X164195297Y-97490722D01*
X164210000Y-97490000D01*
X165860000Y-97490000D01*
X165874703Y-97490722D01*
G37*
G36*
X165874703Y-98760722D02*
G01*
X165889264Y-98762882D01*
X165903543Y-98766459D01*
X165917403Y-98771418D01*
X165930710Y-98777712D01*
X165943336Y-98785280D01*
X165955159Y-98794048D01*
X165966066Y-98803934D01*
X165975952Y-98814841D01*
X165984720Y-98826664D01*
X165992288Y-98839290D01*
X165998582Y-98852597D01*
X166003541Y-98866457D01*
X166007118Y-98880736D01*
X166009278Y-98895297D01*
X166010000Y-98910000D01*
X166010000Y-99210000D01*
X166009278Y-99224703D01*
X166007118Y-99239264D01*
X166003541Y-99253543D01*
X165998582Y-99267403D01*
X165992288Y-99280710D01*
X165984720Y-99293336D01*
X165975952Y-99305159D01*
X165966066Y-99316066D01*
X165955159Y-99325952D01*
X165943336Y-99334720D01*
X165930710Y-99342288D01*
X165917403Y-99348582D01*
X165903543Y-99353541D01*
X165889264Y-99357118D01*
X165874703Y-99359278D01*
X165860000Y-99360000D01*
X164210000Y-99360000D01*
X164195297Y-99359278D01*
X164180736Y-99357118D01*
X164166457Y-99353541D01*
X164152597Y-99348582D01*
X164139290Y-99342288D01*
X164126664Y-99334720D01*
X164114841Y-99325952D01*
X164103934Y-99316066D01*
X164094048Y-99305159D01*
X164085280Y-99293336D01*
X164077712Y-99280710D01*
X164071418Y-99267403D01*
X164066459Y-99253543D01*
X164062882Y-99239264D01*
X164060722Y-99224703D01*
X164060000Y-99210000D01*
X164060000Y-98910000D01*
X164060722Y-98895297D01*
X164062882Y-98880736D01*
X164066459Y-98866457D01*
X164071418Y-98852597D01*
X164077712Y-98839290D01*
X164085280Y-98826664D01*
X164094048Y-98814841D01*
X164103934Y-98803934D01*
X164114841Y-98794048D01*
X164126664Y-98785280D01*
X164139290Y-98777712D01*
X164152597Y-98771418D01*
X164166457Y-98766459D01*
X164180736Y-98762882D01*
X164195297Y-98760722D01*
X164210000Y-98760000D01*
X165860000Y-98760000D01*
X165874703Y-98760722D01*
G37*
G36*
X165874703Y-100030722D02*
G01*
X165889264Y-100032882D01*
X165903543Y-100036459D01*
X165917403Y-100041418D01*
X165930710Y-100047712D01*
X165943336Y-100055280D01*
X165955159Y-100064048D01*
X165966066Y-100073934D01*
X165975952Y-100084841D01*
X165984720Y-100096664D01*
X165992288Y-100109290D01*
X165998582Y-100122597D01*
X166003541Y-100136457D01*
X166007118Y-100150736D01*
X166009278Y-100165297D01*
X166010000Y-100180000D01*
X166010000Y-100480000D01*
X166009278Y-100494703D01*
X166007118Y-100509264D01*
X166003541Y-100523543D01*
X165998582Y-100537403D01*
X165992288Y-100550710D01*
X165984720Y-100563336D01*
X165975952Y-100575159D01*
X165966066Y-100586066D01*
X165955159Y-100595952D01*
X165943336Y-100604720D01*
X165930710Y-100612288D01*
X165917403Y-100618582D01*
X165903543Y-100623541D01*
X165889264Y-100627118D01*
X165874703Y-100629278D01*
X165860000Y-100630000D01*
X164210000Y-100630000D01*
X164195297Y-100629278D01*
X164180736Y-100627118D01*
X164166457Y-100623541D01*
X164152597Y-100618582D01*
X164139290Y-100612288D01*
X164126664Y-100604720D01*
X164114841Y-100595952D01*
X164103934Y-100586066D01*
X164094048Y-100575159D01*
X164085280Y-100563336D01*
X164077712Y-100550710D01*
X164071418Y-100537403D01*
X164066459Y-100523543D01*
X164062882Y-100509264D01*
X164060722Y-100494703D01*
X164060000Y-100480000D01*
X164060000Y-100180000D01*
X164060722Y-100165297D01*
X164062882Y-100150736D01*
X164066459Y-100136457D01*
X164071418Y-100122597D01*
X164077712Y-100109290D01*
X164085280Y-100096664D01*
X164094048Y-100084841D01*
X164103934Y-100073934D01*
X164114841Y-100064048D01*
X164126664Y-100055280D01*
X164139290Y-100047712D01*
X164152597Y-100041418D01*
X164166457Y-100036459D01*
X164180736Y-100032882D01*
X164195297Y-100030722D01*
X164210000Y-100030000D01*
X165860000Y-100030000D01*
X165874703Y-100030722D01*
G37*
G36*
X165874703Y-101300722D02*
G01*
X165889264Y-101302882D01*
X165903543Y-101306459D01*
X165917403Y-101311418D01*
X165930710Y-101317712D01*
X165943336Y-101325280D01*
X165955159Y-101334048D01*
X165966066Y-101343934D01*
X165975952Y-101354841D01*
X165984720Y-101366664D01*
X165992288Y-101379290D01*
X165998582Y-101392597D01*
X166003541Y-101406457D01*
X166007118Y-101420736D01*
X166009278Y-101435297D01*
X166010000Y-101450000D01*
X166010000Y-101750000D01*
X166009278Y-101764703D01*
X166007118Y-101779264D01*
X166003541Y-101793543D01*
X165998582Y-101807403D01*
X165992288Y-101820710D01*
X165984720Y-101833336D01*
X165975952Y-101845159D01*
X165966066Y-101856066D01*
X165955159Y-101865952D01*
X165943336Y-101874720D01*
X165930710Y-101882288D01*
X165917403Y-101888582D01*
X165903543Y-101893541D01*
X165889264Y-101897118D01*
X165874703Y-101899278D01*
X165860000Y-101900000D01*
X164210000Y-101900000D01*
X164195297Y-101899278D01*
X164180736Y-101897118D01*
X164166457Y-101893541D01*
X164152597Y-101888582D01*
X164139290Y-101882288D01*
X164126664Y-101874720D01*
X164114841Y-101865952D01*
X164103934Y-101856066D01*
X164094048Y-101845159D01*
X164085280Y-101833336D01*
X164077712Y-101820710D01*
X164071418Y-101807403D01*
X164066459Y-101793543D01*
X164062882Y-101779264D01*
X164060722Y-101764703D01*
X164060000Y-101750000D01*
X164060000Y-101450000D01*
X164060722Y-101435297D01*
X164062882Y-101420736D01*
X164066459Y-101406457D01*
X164071418Y-101392597D01*
X164077712Y-101379290D01*
X164085280Y-101366664D01*
X164094048Y-101354841D01*
X164103934Y-101343934D01*
X164114841Y-101334048D01*
X164126664Y-101325280D01*
X164139290Y-101317712D01*
X164152597Y-101311418D01*
X164166457Y-101306459D01*
X164180736Y-101302882D01*
X164195297Y-101300722D01*
X164210000Y-101300000D01*
X165860000Y-101300000D01*
X165874703Y-101300722D01*
G37*
G36*
X165874703Y-102570722D02*
G01*
X165889264Y-102572882D01*
X165903543Y-102576459D01*
X165917403Y-102581418D01*
X165930710Y-102587712D01*
X165943336Y-102595280D01*
X165955159Y-102604048D01*
X165966066Y-102613934D01*
X165975952Y-102624841D01*
X165984720Y-102636664D01*
X165992288Y-102649290D01*
X165998582Y-102662597D01*
X166003541Y-102676457D01*
X166007118Y-102690736D01*
X166009278Y-102705297D01*
X166010000Y-102720000D01*
X166010000Y-103020000D01*
X166009278Y-103034703D01*
X166007118Y-103049264D01*
X166003541Y-103063543D01*
X165998582Y-103077403D01*
X165992288Y-103090710D01*
X165984720Y-103103336D01*
X165975952Y-103115159D01*
X165966066Y-103126066D01*
X165955159Y-103135952D01*
X165943336Y-103144720D01*
X165930710Y-103152288D01*
X165917403Y-103158582D01*
X165903543Y-103163541D01*
X165889264Y-103167118D01*
X165874703Y-103169278D01*
X165860000Y-103170000D01*
X164210000Y-103170000D01*
X164195297Y-103169278D01*
X164180736Y-103167118D01*
X164166457Y-103163541D01*
X164152597Y-103158582D01*
X164139290Y-103152288D01*
X164126664Y-103144720D01*
X164114841Y-103135952D01*
X164103934Y-103126066D01*
X164094048Y-103115159D01*
X164085280Y-103103336D01*
X164077712Y-103090710D01*
X164071418Y-103077403D01*
X164066459Y-103063543D01*
X164062882Y-103049264D01*
X164060722Y-103034703D01*
X164060000Y-103020000D01*
X164060000Y-102720000D01*
X164060722Y-102705297D01*
X164062882Y-102690736D01*
X164066459Y-102676457D01*
X164071418Y-102662597D01*
X164077712Y-102649290D01*
X164085280Y-102636664D01*
X164094048Y-102624841D01*
X164103934Y-102613934D01*
X164114841Y-102604048D01*
X164126664Y-102595280D01*
X164139290Y-102587712D01*
X164152597Y-102581418D01*
X164166457Y-102576459D01*
X164180736Y-102572882D01*
X164195297Y-102570722D01*
X164210000Y-102570000D01*
X165860000Y-102570000D01*
X165874703Y-102570722D01*
G37*
G36*
X160924703Y-102570722D02*
G01*
X160939264Y-102572882D01*
X160953543Y-102576459D01*
X160967403Y-102581418D01*
X160980710Y-102587712D01*
X160993336Y-102595280D01*
X161005159Y-102604048D01*
X161016066Y-102613934D01*
X161025952Y-102624841D01*
X161034720Y-102636664D01*
X161042288Y-102649290D01*
X161048582Y-102662597D01*
X161053541Y-102676457D01*
X161057118Y-102690736D01*
X161059278Y-102705297D01*
X161060000Y-102720000D01*
X161060000Y-103020000D01*
X161059278Y-103034703D01*
X161057118Y-103049264D01*
X161053541Y-103063543D01*
X161048582Y-103077403D01*
X161042288Y-103090710D01*
X161034720Y-103103336D01*
X161025952Y-103115159D01*
X161016066Y-103126066D01*
X161005159Y-103135952D01*
X160993336Y-103144720D01*
X160980710Y-103152288D01*
X160967403Y-103158582D01*
X160953543Y-103163541D01*
X160939264Y-103167118D01*
X160924703Y-103169278D01*
X160910000Y-103170000D01*
X159260000Y-103170000D01*
X159245297Y-103169278D01*
X159230736Y-103167118D01*
X159216457Y-103163541D01*
X159202597Y-103158582D01*
X159189290Y-103152288D01*
X159176664Y-103144720D01*
X159164841Y-103135952D01*
X159153934Y-103126066D01*
X159144048Y-103115159D01*
X159135280Y-103103336D01*
X159127712Y-103090710D01*
X159121418Y-103077403D01*
X159116459Y-103063543D01*
X159112882Y-103049264D01*
X159110722Y-103034703D01*
X159110000Y-103020000D01*
X159110000Y-102720000D01*
X159110722Y-102705297D01*
X159112882Y-102690736D01*
X159116459Y-102676457D01*
X159121418Y-102662597D01*
X159127712Y-102649290D01*
X159135280Y-102636664D01*
X159144048Y-102624841D01*
X159153934Y-102613934D01*
X159164841Y-102604048D01*
X159176664Y-102595280D01*
X159189290Y-102587712D01*
X159202597Y-102581418D01*
X159216457Y-102576459D01*
X159230736Y-102572882D01*
X159245297Y-102570722D01*
X159260000Y-102570000D01*
X160910000Y-102570000D01*
X160924703Y-102570722D01*
G37*
G36*
X160924703Y-101300722D02*
G01*
X160939264Y-101302882D01*
X160953543Y-101306459D01*
X160967403Y-101311418D01*
X160980710Y-101317712D01*
X160993336Y-101325280D01*
X161005159Y-101334048D01*
X161016066Y-101343934D01*
X161025952Y-101354841D01*
X161034720Y-101366664D01*
X161042288Y-101379290D01*
X161048582Y-101392597D01*
X161053541Y-101406457D01*
X161057118Y-101420736D01*
X161059278Y-101435297D01*
X161060000Y-101450000D01*
X161060000Y-101750000D01*
X161059278Y-101764703D01*
X161057118Y-101779264D01*
X161053541Y-101793543D01*
X161048582Y-101807403D01*
X161042288Y-101820710D01*
X161034720Y-101833336D01*
X161025952Y-101845159D01*
X161016066Y-101856066D01*
X161005159Y-101865952D01*
X160993336Y-101874720D01*
X160980710Y-101882288D01*
X160967403Y-101888582D01*
X160953543Y-101893541D01*
X160939264Y-101897118D01*
X160924703Y-101899278D01*
X160910000Y-101900000D01*
X159260000Y-101900000D01*
X159245297Y-101899278D01*
X159230736Y-101897118D01*
X159216457Y-101893541D01*
X159202597Y-101888582D01*
X159189290Y-101882288D01*
X159176664Y-101874720D01*
X159164841Y-101865952D01*
X159153934Y-101856066D01*
X159144048Y-101845159D01*
X159135280Y-101833336D01*
X159127712Y-101820710D01*
X159121418Y-101807403D01*
X159116459Y-101793543D01*
X159112882Y-101779264D01*
X159110722Y-101764703D01*
X159110000Y-101750000D01*
X159110000Y-101450000D01*
X159110722Y-101435297D01*
X159112882Y-101420736D01*
X159116459Y-101406457D01*
X159121418Y-101392597D01*
X159127712Y-101379290D01*
X159135280Y-101366664D01*
X159144048Y-101354841D01*
X159153934Y-101343934D01*
X159164841Y-101334048D01*
X159176664Y-101325280D01*
X159189290Y-101317712D01*
X159202597Y-101311418D01*
X159216457Y-101306459D01*
X159230736Y-101302882D01*
X159245297Y-101300722D01*
X159260000Y-101300000D01*
X160910000Y-101300000D01*
X160924703Y-101300722D01*
G37*
G36*
X160924703Y-100030722D02*
G01*
X160939264Y-100032882D01*
X160953543Y-100036459D01*
X160967403Y-100041418D01*
X160980710Y-100047712D01*
X160993336Y-100055280D01*
X161005159Y-100064048D01*
X161016066Y-100073934D01*
X161025952Y-100084841D01*
X161034720Y-100096664D01*
X161042288Y-100109290D01*
X161048582Y-100122597D01*
X161053541Y-100136457D01*
X161057118Y-100150736D01*
X161059278Y-100165297D01*
X161060000Y-100180000D01*
X161060000Y-100480000D01*
X161059278Y-100494703D01*
X161057118Y-100509264D01*
X161053541Y-100523543D01*
X161048582Y-100537403D01*
X161042288Y-100550710D01*
X161034720Y-100563336D01*
X161025952Y-100575159D01*
X161016066Y-100586066D01*
X161005159Y-100595952D01*
X160993336Y-100604720D01*
X160980710Y-100612288D01*
X160967403Y-100618582D01*
X160953543Y-100623541D01*
X160939264Y-100627118D01*
X160924703Y-100629278D01*
X160910000Y-100630000D01*
X159260000Y-100630000D01*
X159245297Y-100629278D01*
X159230736Y-100627118D01*
X159216457Y-100623541D01*
X159202597Y-100618582D01*
X159189290Y-100612288D01*
X159176664Y-100604720D01*
X159164841Y-100595952D01*
X159153934Y-100586066D01*
X159144048Y-100575159D01*
X159135280Y-100563336D01*
X159127712Y-100550710D01*
X159121418Y-100537403D01*
X159116459Y-100523543D01*
X159112882Y-100509264D01*
X159110722Y-100494703D01*
X159110000Y-100480000D01*
X159110000Y-100180000D01*
X159110722Y-100165297D01*
X159112882Y-100150736D01*
X159116459Y-100136457D01*
X159121418Y-100122597D01*
X159127712Y-100109290D01*
X159135280Y-100096664D01*
X159144048Y-100084841D01*
X159153934Y-100073934D01*
X159164841Y-100064048D01*
X159176664Y-100055280D01*
X159189290Y-100047712D01*
X159202597Y-100041418D01*
X159216457Y-100036459D01*
X159230736Y-100032882D01*
X159245297Y-100030722D01*
X159260000Y-100030000D01*
X160910000Y-100030000D01*
X160924703Y-100030722D01*
G37*
G36*
X160924703Y-98760722D02*
G01*
X160939264Y-98762882D01*
X160953543Y-98766459D01*
X160967403Y-98771418D01*
X160980710Y-98777712D01*
X160993336Y-98785280D01*
X161005159Y-98794048D01*
X161016066Y-98803934D01*
X161025952Y-98814841D01*
X161034720Y-98826664D01*
X161042288Y-98839290D01*
X161048582Y-98852597D01*
X161053541Y-98866457D01*
X161057118Y-98880736D01*
X161059278Y-98895297D01*
X161060000Y-98910000D01*
X161060000Y-99210000D01*
X161059278Y-99224703D01*
X161057118Y-99239264D01*
X161053541Y-99253543D01*
X161048582Y-99267403D01*
X161042288Y-99280710D01*
X161034720Y-99293336D01*
X161025952Y-99305159D01*
X161016066Y-99316066D01*
X161005159Y-99325952D01*
X160993336Y-99334720D01*
X160980710Y-99342288D01*
X160967403Y-99348582D01*
X160953543Y-99353541D01*
X160939264Y-99357118D01*
X160924703Y-99359278D01*
X160910000Y-99360000D01*
X159260000Y-99360000D01*
X159245297Y-99359278D01*
X159230736Y-99357118D01*
X159216457Y-99353541D01*
X159202597Y-99348582D01*
X159189290Y-99342288D01*
X159176664Y-99334720D01*
X159164841Y-99325952D01*
X159153934Y-99316066D01*
X159144048Y-99305159D01*
X159135280Y-99293336D01*
X159127712Y-99280710D01*
X159121418Y-99267403D01*
X159116459Y-99253543D01*
X159112882Y-99239264D01*
X159110722Y-99224703D01*
X159110000Y-99210000D01*
X159110000Y-98910000D01*
X159110722Y-98895297D01*
X159112882Y-98880736D01*
X159116459Y-98866457D01*
X159121418Y-98852597D01*
X159127712Y-98839290D01*
X159135280Y-98826664D01*
X159144048Y-98814841D01*
X159153934Y-98803934D01*
X159164841Y-98794048D01*
X159176664Y-98785280D01*
X159189290Y-98777712D01*
X159202597Y-98771418D01*
X159216457Y-98766459D01*
X159230736Y-98762882D01*
X159245297Y-98760722D01*
X159260000Y-98760000D01*
X160910000Y-98760000D01*
X160924703Y-98760722D01*
G37*
G36*
X160924703Y-97490722D02*
G01*
X160939264Y-97492882D01*
X160953543Y-97496459D01*
X160967403Y-97501418D01*
X160980710Y-97507712D01*
X160993336Y-97515280D01*
X161005159Y-97524048D01*
X161016066Y-97533934D01*
X161025952Y-97544841D01*
X161034720Y-97556664D01*
X161042288Y-97569290D01*
X161048582Y-97582597D01*
X161053541Y-97596457D01*
X161057118Y-97610736D01*
X161059278Y-97625297D01*
X161060000Y-97640000D01*
X161060000Y-97940000D01*
X161059278Y-97954703D01*
X161057118Y-97969264D01*
X161053541Y-97983543D01*
X161048582Y-97997403D01*
X161042288Y-98010710D01*
X161034720Y-98023336D01*
X161025952Y-98035159D01*
X161016066Y-98046066D01*
X161005159Y-98055952D01*
X160993336Y-98064720D01*
X160980710Y-98072288D01*
X160967403Y-98078582D01*
X160953543Y-98083541D01*
X160939264Y-98087118D01*
X160924703Y-98089278D01*
X160910000Y-98090000D01*
X159260000Y-98090000D01*
X159245297Y-98089278D01*
X159230736Y-98087118D01*
X159216457Y-98083541D01*
X159202597Y-98078582D01*
X159189290Y-98072288D01*
X159176664Y-98064720D01*
X159164841Y-98055952D01*
X159153934Y-98046066D01*
X159144048Y-98035159D01*
X159135280Y-98023336D01*
X159127712Y-98010710D01*
X159121418Y-97997403D01*
X159116459Y-97983543D01*
X159112882Y-97969264D01*
X159110722Y-97954703D01*
X159110000Y-97940000D01*
X159110000Y-97640000D01*
X159110722Y-97625297D01*
X159112882Y-97610736D01*
X159116459Y-97596457D01*
X159121418Y-97582597D01*
X159127712Y-97569290D01*
X159135280Y-97556664D01*
X159144048Y-97544841D01*
X159153934Y-97533934D01*
X159164841Y-97524048D01*
X159176664Y-97515280D01*
X159189290Y-97507712D01*
X159202597Y-97501418D01*
X159216457Y-97496459D01*
X159230736Y-97492882D01*
X159245297Y-97490722D01*
X159260000Y-97490000D01*
X160910000Y-97490000D01*
X160924703Y-97490722D01*
G37*
G36*
X160924703Y-96220722D02*
G01*
X160939264Y-96222882D01*
X160953543Y-96226459D01*
X160967403Y-96231418D01*
X160980710Y-96237712D01*
X160993336Y-96245280D01*
X161005159Y-96254048D01*
X161016066Y-96263934D01*
X161025952Y-96274841D01*
X161034720Y-96286664D01*
X161042288Y-96299290D01*
X161048582Y-96312597D01*
X161053541Y-96326457D01*
X161057118Y-96340736D01*
X161059278Y-96355297D01*
X161060000Y-96370000D01*
X161060000Y-96670000D01*
X161059278Y-96684703D01*
X161057118Y-96699264D01*
X161053541Y-96713543D01*
X161048582Y-96727403D01*
X161042288Y-96740710D01*
X161034720Y-96753336D01*
X161025952Y-96765159D01*
X161016066Y-96776066D01*
X161005159Y-96785952D01*
X160993336Y-96794720D01*
X160980710Y-96802288D01*
X160967403Y-96808582D01*
X160953543Y-96813541D01*
X160939264Y-96817118D01*
X160924703Y-96819278D01*
X160910000Y-96820000D01*
X159260000Y-96820000D01*
X159245297Y-96819278D01*
X159230736Y-96817118D01*
X159216457Y-96813541D01*
X159202597Y-96808582D01*
X159189290Y-96802288D01*
X159176664Y-96794720D01*
X159164841Y-96785952D01*
X159153934Y-96776066D01*
X159144048Y-96765159D01*
X159135280Y-96753336D01*
X159127712Y-96740710D01*
X159121418Y-96727403D01*
X159116459Y-96713543D01*
X159112882Y-96699264D01*
X159110722Y-96684703D01*
X159110000Y-96670000D01*
X159110000Y-96370000D01*
X159110722Y-96355297D01*
X159112882Y-96340736D01*
X159116459Y-96326457D01*
X159121418Y-96312597D01*
X159127712Y-96299290D01*
X159135280Y-96286664D01*
X159144048Y-96274841D01*
X159153934Y-96263934D01*
X159164841Y-96254048D01*
X159176664Y-96245280D01*
X159189290Y-96237712D01*
X159202597Y-96231418D01*
X159216457Y-96226459D01*
X159230736Y-96222882D01*
X159245297Y-96220722D01*
X159260000Y-96220000D01*
X160910000Y-96220000D01*
X160924703Y-96220722D01*
G37*
G36*
X160924703Y-94950722D02*
G01*
X160939264Y-94952882D01*
X160953543Y-94956459D01*
X160967403Y-94961418D01*
X160980710Y-94967712D01*
X160993336Y-94975280D01*
X161005159Y-94984048D01*
X161016066Y-94993934D01*
X161025952Y-95004841D01*
X161034720Y-95016664D01*
X161042288Y-95029290D01*
X161048582Y-95042597D01*
X161053541Y-95056457D01*
X161057118Y-95070736D01*
X161059278Y-95085297D01*
X161060000Y-95100000D01*
X161060000Y-95400000D01*
X161059278Y-95414703D01*
X161057118Y-95429264D01*
X161053541Y-95443543D01*
X161048582Y-95457403D01*
X161042288Y-95470710D01*
X161034720Y-95483336D01*
X161025952Y-95495159D01*
X161016066Y-95506066D01*
X161005159Y-95515952D01*
X160993336Y-95524720D01*
X160980710Y-95532288D01*
X160967403Y-95538582D01*
X160953543Y-95543541D01*
X160939264Y-95547118D01*
X160924703Y-95549278D01*
X160910000Y-95550000D01*
X159260000Y-95550000D01*
X159245297Y-95549278D01*
X159230736Y-95547118D01*
X159216457Y-95543541D01*
X159202597Y-95538582D01*
X159189290Y-95532288D01*
X159176664Y-95524720D01*
X159164841Y-95515952D01*
X159153934Y-95506066D01*
X159144048Y-95495159D01*
X159135280Y-95483336D01*
X159127712Y-95470710D01*
X159121418Y-95457403D01*
X159116459Y-95443543D01*
X159112882Y-95429264D01*
X159110722Y-95414703D01*
X159110000Y-95400000D01*
X159110000Y-95100000D01*
X159110722Y-95085297D01*
X159112882Y-95070736D01*
X159116459Y-95056457D01*
X159121418Y-95042597D01*
X159127712Y-95029290D01*
X159135280Y-95016664D01*
X159144048Y-95004841D01*
X159153934Y-94993934D01*
X159164841Y-94984048D01*
X159176664Y-94975280D01*
X159189290Y-94967712D01*
X159202597Y-94961418D01*
X159216457Y-94956459D01*
X159230736Y-94952882D01*
X159245297Y-94950722D01*
X159260000Y-94950000D01*
X160910000Y-94950000D01*
X160924703Y-94950722D01*
G37*
D12*
X162585000Y-68185000D03*
X162585000Y-72785000D03*
X162585000Y-70485000D03*
D13*
X168885000Y-70485000D03*
D14*
X134620000Y-66430000D03*
X135890000Y-66430000D03*
X137160000Y-66430000D03*
X138430000Y-66430000D03*
X139700000Y-66430000D03*
X140970000Y-66430000D03*
X142240000Y-66430000D03*
X143510000Y-66430000D03*
X144780000Y-66430000D03*
X146050000Y-66430000D03*
X147320000Y-66430000D03*
X148590000Y-66430000D03*
X149860000Y-66430000D03*
X151130000Y-66430000D03*
D15*
X152130000Y-69215000D03*
X152130000Y-70485000D03*
X152130000Y-71755000D03*
X152130000Y-73025000D03*
X152130000Y-74295000D03*
X152130000Y-75565000D03*
X152130000Y-76835000D03*
X152130000Y-78105000D03*
X152130000Y-79375000D03*
X152130000Y-80645000D03*
D14*
X151130000Y-83430000D03*
X149860000Y-83430000D03*
X148590000Y-83430000D03*
X147320000Y-83430000D03*
X146050000Y-83430000D03*
X144780000Y-83430000D03*
X143510000Y-83430000D03*
X142240000Y-83430000D03*
X140970000Y-83430000D03*
X139700000Y-83430000D03*
X138430000Y-83430000D03*
X137160000Y-83430000D03*
X135890000Y-83430000D03*
X134620000Y-83430000D03*
D16*
X142120000Y-75930000D03*
D17*
X147480000Y-100330000D03*
X142080000Y-100330000D03*
X142080000Y-92710000D03*
X147480000Y-92710000D03*
D11*
G36*
X162129505Y-78676204D02*
G01*
X162153773Y-78679804D01*
X162177572Y-78685765D01*
X162200671Y-78694030D01*
X162222850Y-78704520D01*
X162243893Y-78717132D01*
X162263599Y-78731747D01*
X162281777Y-78748223D01*
X162298253Y-78766401D01*
X162312868Y-78786107D01*
X162325480Y-78807150D01*
X162335970Y-78829329D01*
X162344235Y-78852428D01*
X162350196Y-78876227D01*
X162353796Y-78900495D01*
X162355000Y-78924999D01*
X162355000Y-79825001D01*
X162353796Y-79849505D01*
X162350196Y-79873773D01*
X162344235Y-79897572D01*
X162335970Y-79920671D01*
X162325480Y-79942850D01*
X162312868Y-79963893D01*
X162298253Y-79983599D01*
X162281777Y-80001777D01*
X162263599Y-80018253D01*
X162243893Y-80032868D01*
X162222850Y-80045480D01*
X162200671Y-80055970D01*
X162177572Y-80064235D01*
X162153773Y-80070196D01*
X162129505Y-80073796D01*
X162105001Y-80075000D01*
X161454999Y-80075000D01*
X161430495Y-80073796D01*
X161406227Y-80070196D01*
X161382428Y-80064235D01*
X161359329Y-80055970D01*
X161337150Y-80045480D01*
X161316107Y-80032868D01*
X161296401Y-80018253D01*
X161278223Y-80001777D01*
X161261747Y-79983599D01*
X161247132Y-79963893D01*
X161234520Y-79942850D01*
X161224030Y-79920671D01*
X161215765Y-79897572D01*
X161209804Y-79873773D01*
X161206204Y-79849505D01*
X161205000Y-79825001D01*
X161205000Y-78924999D01*
X161206204Y-78900495D01*
X161209804Y-78876227D01*
X161215765Y-78852428D01*
X161224030Y-78829329D01*
X161234520Y-78807150D01*
X161247132Y-78786107D01*
X161261747Y-78766401D01*
X161278223Y-78748223D01*
X161296401Y-78731747D01*
X161316107Y-78717132D01*
X161337150Y-78704520D01*
X161359329Y-78694030D01*
X161382428Y-78685765D01*
X161406227Y-78679804D01*
X161430495Y-78676204D01*
X161454999Y-78675000D01*
X162105001Y-78675000D01*
X162129505Y-78676204D01*
G37*
G36*
X164179505Y-78676204D02*
G01*
X164203773Y-78679804D01*
X164227572Y-78685765D01*
X164250671Y-78694030D01*
X164272850Y-78704520D01*
X164293893Y-78717132D01*
X164313599Y-78731747D01*
X164331777Y-78748223D01*
X164348253Y-78766401D01*
X164362868Y-78786107D01*
X164375480Y-78807150D01*
X164385970Y-78829329D01*
X164394235Y-78852428D01*
X164400196Y-78876227D01*
X164403796Y-78900495D01*
X164405000Y-78924999D01*
X164405000Y-79825001D01*
X164403796Y-79849505D01*
X164400196Y-79873773D01*
X164394235Y-79897572D01*
X164385970Y-79920671D01*
X164375480Y-79942850D01*
X164362868Y-79963893D01*
X164348253Y-79983599D01*
X164331777Y-80001777D01*
X164313599Y-80018253D01*
X164293893Y-80032868D01*
X164272850Y-80045480D01*
X164250671Y-80055970D01*
X164227572Y-80064235D01*
X164203773Y-80070196D01*
X164179505Y-80073796D01*
X164155001Y-80075000D01*
X163504999Y-80075000D01*
X163480495Y-80073796D01*
X163456227Y-80070196D01*
X163432428Y-80064235D01*
X163409329Y-80055970D01*
X163387150Y-80045480D01*
X163366107Y-80032868D01*
X163346401Y-80018253D01*
X163328223Y-80001777D01*
X163311747Y-79983599D01*
X163297132Y-79963893D01*
X163284520Y-79942850D01*
X163274030Y-79920671D01*
X163265765Y-79897572D01*
X163259804Y-79873773D01*
X163256204Y-79849505D01*
X163255000Y-79825001D01*
X163255000Y-78924999D01*
X163256204Y-78900495D01*
X163259804Y-78876227D01*
X163265765Y-78852428D01*
X163274030Y-78829329D01*
X163284520Y-78807150D01*
X163297132Y-78786107D01*
X163311747Y-78766401D01*
X163328223Y-78748223D01*
X163346401Y-78731747D01*
X163366107Y-78717132D01*
X163387150Y-78704520D01*
X163409329Y-78694030D01*
X163432428Y-78685765D01*
X163456227Y-78679804D01*
X163480495Y-78676204D01*
X163504999Y-78675000D01*
X164155001Y-78675000D01*
X164179505Y-78676204D01*
G37*
G36*
X152874505Y-92381204D02*
G01*
X152898773Y-92384804D01*
X152922572Y-92390765D01*
X152945671Y-92399030D01*
X152967850Y-92409520D01*
X152988893Y-92422132D01*
X153008599Y-92436747D01*
X153026777Y-92453223D01*
X153043253Y-92471401D01*
X153057868Y-92491107D01*
X153070480Y-92512150D01*
X153080970Y-92534329D01*
X153089235Y-92557428D01*
X153095196Y-92581227D01*
X153098796Y-92605495D01*
X153100000Y-92629999D01*
X153100000Y-93280001D01*
X153098796Y-93304505D01*
X153095196Y-93328773D01*
X153089235Y-93352572D01*
X153080970Y-93375671D01*
X153070480Y-93397850D01*
X153057868Y-93418893D01*
X153043253Y-93438599D01*
X153026777Y-93456777D01*
X153008599Y-93473253D01*
X152988893Y-93487868D01*
X152967850Y-93500480D01*
X152945671Y-93510970D01*
X152922572Y-93519235D01*
X152898773Y-93525196D01*
X152874505Y-93528796D01*
X152850001Y-93530000D01*
X151949999Y-93530000D01*
X151925495Y-93528796D01*
X151901227Y-93525196D01*
X151877428Y-93519235D01*
X151854329Y-93510970D01*
X151832150Y-93500480D01*
X151811107Y-93487868D01*
X151791401Y-93473253D01*
X151773223Y-93456777D01*
X151756747Y-93438599D01*
X151742132Y-93418893D01*
X151729520Y-93397850D01*
X151719030Y-93375671D01*
X151710765Y-93352572D01*
X151704804Y-93328773D01*
X151701204Y-93304505D01*
X151700000Y-93280001D01*
X151700000Y-92629999D01*
X151701204Y-92605495D01*
X151704804Y-92581227D01*
X151710765Y-92557428D01*
X151719030Y-92534329D01*
X151729520Y-92512150D01*
X151742132Y-92491107D01*
X151756747Y-92471401D01*
X151773223Y-92453223D01*
X151791401Y-92436747D01*
X151811107Y-92422132D01*
X151832150Y-92409520D01*
X151854329Y-92399030D01*
X151877428Y-92390765D01*
X151901227Y-92384804D01*
X151925495Y-92381204D01*
X151949999Y-92380000D01*
X152850001Y-92380000D01*
X152874505Y-92381204D01*
G37*
G36*
X152874505Y-94431204D02*
G01*
X152898773Y-94434804D01*
X152922572Y-94440765D01*
X152945671Y-94449030D01*
X152967850Y-94459520D01*
X152988893Y-94472132D01*
X153008599Y-94486747D01*
X153026777Y-94503223D01*
X153043253Y-94521401D01*
X153057868Y-94541107D01*
X153070480Y-94562150D01*
X153080970Y-94584329D01*
X153089235Y-94607428D01*
X153095196Y-94631227D01*
X153098796Y-94655495D01*
X153100000Y-94679999D01*
X153100000Y-95330001D01*
X153098796Y-95354505D01*
X153095196Y-95378773D01*
X153089235Y-95402572D01*
X153080970Y-95425671D01*
X153070480Y-95447850D01*
X153057868Y-95468893D01*
X153043253Y-95488599D01*
X153026777Y-95506777D01*
X153008599Y-95523253D01*
X152988893Y-95537868D01*
X152967850Y-95550480D01*
X152945671Y-95560970D01*
X152922572Y-95569235D01*
X152898773Y-95575196D01*
X152874505Y-95578796D01*
X152850001Y-95580000D01*
X151949999Y-95580000D01*
X151925495Y-95578796D01*
X151901227Y-95575196D01*
X151877428Y-95569235D01*
X151854329Y-95560970D01*
X151832150Y-95550480D01*
X151811107Y-95537868D01*
X151791401Y-95523253D01*
X151773223Y-95506777D01*
X151756747Y-95488599D01*
X151742132Y-95468893D01*
X151729520Y-95447850D01*
X151719030Y-95425671D01*
X151710765Y-95402572D01*
X151704804Y-95378773D01*
X151701204Y-95354505D01*
X151700000Y-95330001D01*
X151700000Y-94679999D01*
X151701204Y-94655495D01*
X151704804Y-94631227D01*
X151710765Y-94607428D01*
X151719030Y-94584329D01*
X151729520Y-94562150D01*
X151742132Y-94541107D01*
X151756747Y-94521401D01*
X151773223Y-94503223D01*
X151791401Y-94486747D01*
X151811107Y-94472132D01*
X151832150Y-94459520D01*
X151854329Y-94449030D01*
X151877428Y-94440765D01*
X151901227Y-94434804D01*
X151925495Y-94431204D01*
X151949999Y-94430000D01*
X152850001Y-94430000D01*
X152874505Y-94431204D01*
G37*
G36*
X153384505Y-103441204D02*
G01*
X153408773Y-103444804D01*
X153432572Y-103450765D01*
X153455671Y-103459030D01*
X153477850Y-103469520D01*
X153498893Y-103482132D01*
X153518599Y-103496747D01*
X153536777Y-103513223D01*
X153553253Y-103531401D01*
X153567868Y-103551107D01*
X153580480Y-103572150D01*
X153590970Y-103594329D01*
X153599235Y-103617428D01*
X153605196Y-103641227D01*
X153608796Y-103665495D01*
X153610000Y-103689999D01*
X153610000Y-104590001D01*
X153608796Y-104614505D01*
X153605196Y-104638773D01*
X153599235Y-104662572D01*
X153590970Y-104685671D01*
X153580480Y-104707850D01*
X153567868Y-104728893D01*
X153553253Y-104748599D01*
X153536777Y-104766777D01*
X153518599Y-104783253D01*
X153498893Y-104797868D01*
X153477850Y-104810480D01*
X153455671Y-104820970D01*
X153432572Y-104829235D01*
X153408773Y-104835196D01*
X153384505Y-104838796D01*
X153360001Y-104840000D01*
X152709999Y-104840000D01*
X152685495Y-104838796D01*
X152661227Y-104835196D01*
X152637428Y-104829235D01*
X152614329Y-104820970D01*
X152592150Y-104810480D01*
X152571107Y-104797868D01*
X152551401Y-104783253D01*
X152533223Y-104766777D01*
X152516747Y-104748599D01*
X152502132Y-104728893D01*
X152489520Y-104707850D01*
X152479030Y-104685671D01*
X152470765Y-104662572D01*
X152464804Y-104638773D01*
X152461204Y-104614505D01*
X152460000Y-104590001D01*
X152460000Y-103689999D01*
X152461204Y-103665495D01*
X152464804Y-103641227D01*
X152470765Y-103617428D01*
X152479030Y-103594329D01*
X152489520Y-103572150D01*
X152502132Y-103551107D01*
X152516747Y-103531401D01*
X152533223Y-103513223D01*
X152551401Y-103496747D01*
X152571107Y-103482132D01*
X152592150Y-103469520D01*
X152614329Y-103459030D01*
X152637428Y-103450765D01*
X152661227Y-103444804D01*
X152685495Y-103441204D01*
X152709999Y-103440000D01*
X153360001Y-103440000D01*
X153384505Y-103441204D01*
G37*
G36*
X151334505Y-103441204D02*
G01*
X151358773Y-103444804D01*
X151382572Y-103450765D01*
X151405671Y-103459030D01*
X151427850Y-103469520D01*
X151448893Y-103482132D01*
X151468599Y-103496747D01*
X151486777Y-103513223D01*
X151503253Y-103531401D01*
X151517868Y-103551107D01*
X151530480Y-103572150D01*
X151540970Y-103594329D01*
X151549235Y-103617428D01*
X151555196Y-103641227D01*
X151558796Y-103665495D01*
X151560000Y-103689999D01*
X151560000Y-104590001D01*
X151558796Y-104614505D01*
X151555196Y-104638773D01*
X151549235Y-104662572D01*
X151540970Y-104685671D01*
X151530480Y-104707850D01*
X151517868Y-104728893D01*
X151503253Y-104748599D01*
X151486777Y-104766777D01*
X151468599Y-104783253D01*
X151448893Y-104797868D01*
X151427850Y-104810480D01*
X151405671Y-104820970D01*
X151382572Y-104829235D01*
X151358773Y-104835196D01*
X151334505Y-104838796D01*
X151310001Y-104840000D01*
X150659999Y-104840000D01*
X150635495Y-104838796D01*
X150611227Y-104835196D01*
X150587428Y-104829235D01*
X150564329Y-104820970D01*
X150542150Y-104810480D01*
X150521107Y-104797868D01*
X150501401Y-104783253D01*
X150483223Y-104766777D01*
X150466747Y-104748599D01*
X150452132Y-104728893D01*
X150439520Y-104707850D01*
X150429030Y-104685671D01*
X150420765Y-104662572D01*
X150414804Y-104638773D01*
X150411204Y-104614505D01*
X150410000Y-104590001D01*
X150410000Y-103689999D01*
X150411204Y-103665495D01*
X150414804Y-103641227D01*
X150420765Y-103617428D01*
X150429030Y-103594329D01*
X150439520Y-103572150D01*
X150452132Y-103551107D01*
X150466747Y-103531401D01*
X150483223Y-103513223D01*
X150501401Y-103496747D01*
X150521107Y-103482132D01*
X150542150Y-103469520D01*
X150564329Y-103459030D01*
X150587428Y-103450765D01*
X150611227Y-103444804D01*
X150635495Y-103441204D01*
X150659999Y-103440000D01*
X151310001Y-103440000D01*
X151334505Y-103441204D01*
G37*
G36*
X154019505Y-88201204D02*
G01*
X154043773Y-88204804D01*
X154067572Y-88210765D01*
X154090671Y-88219030D01*
X154112850Y-88229520D01*
X154133893Y-88242132D01*
X154153599Y-88256747D01*
X154171777Y-88273223D01*
X154188253Y-88291401D01*
X154202868Y-88311107D01*
X154215480Y-88332150D01*
X154225970Y-88354329D01*
X154234235Y-88377428D01*
X154240196Y-88401227D01*
X154243796Y-88425495D01*
X154245000Y-88449999D01*
X154245000Y-89350001D01*
X154243796Y-89374505D01*
X154240196Y-89398773D01*
X154234235Y-89422572D01*
X154225970Y-89445671D01*
X154215480Y-89467850D01*
X154202868Y-89488893D01*
X154188253Y-89508599D01*
X154171777Y-89526777D01*
X154153599Y-89543253D01*
X154133893Y-89557868D01*
X154112850Y-89570480D01*
X154090671Y-89580970D01*
X154067572Y-89589235D01*
X154043773Y-89595196D01*
X154019505Y-89598796D01*
X153995001Y-89600000D01*
X153344999Y-89600000D01*
X153320495Y-89598796D01*
X153296227Y-89595196D01*
X153272428Y-89589235D01*
X153249329Y-89580970D01*
X153227150Y-89570480D01*
X153206107Y-89557868D01*
X153186401Y-89543253D01*
X153168223Y-89526777D01*
X153151747Y-89508599D01*
X153137132Y-89488893D01*
X153124520Y-89467850D01*
X153114030Y-89445671D01*
X153105765Y-89422572D01*
X153099804Y-89398773D01*
X153096204Y-89374505D01*
X153095000Y-89350001D01*
X153095000Y-88449999D01*
X153096204Y-88425495D01*
X153099804Y-88401227D01*
X153105765Y-88377428D01*
X153114030Y-88354329D01*
X153124520Y-88332150D01*
X153137132Y-88311107D01*
X153151747Y-88291401D01*
X153168223Y-88273223D01*
X153186401Y-88256747D01*
X153206107Y-88242132D01*
X153227150Y-88229520D01*
X153249329Y-88219030D01*
X153272428Y-88210765D01*
X153296227Y-88204804D01*
X153320495Y-88201204D01*
X153344999Y-88200000D01*
X153995001Y-88200000D01*
X154019505Y-88201204D01*
G37*
G36*
X151969505Y-88201204D02*
G01*
X151993773Y-88204804D01*
X152017572Y-88210765D01*
X152040671Y-88219030D01*
X152062850Y-88229520D01*
X152083893Y-88242132D01*
X152103599Y-88256747D01*
X152121777Y-88273223D01*
X152138253Y-88291401D01*
X152152868Y-88311107D01*
X152165480Y-88332150D01*
X152175970Y-88354329D01*
X152184235Y-88377428D01*
X152190196Y-88401227D01*
X152193796Y-88425495D01*
X152195000Y-88449999D01*
X152195000Y-89350001D01*
X152193796Y-89374505D01*
X152190196Y-89398773D01*
X152184235Y-89422572D01*
X152175970Y-89445671D01*
X152165480Y-89467850D01*
X152152868Y-89488893D01*
X152138253Y-89508599D01*
X152121777Y-89526777D01*
X152103599Y-89543253D01*
X152083893Y-89557868D01*
X152062850Y-89570480D01*
X152040671Y-89580970D01*
X152017572Y-89589235D01*
X151993773Y-89595196D01*
X151969505Y-89598796D01*
X151945001Y-89600000D01*
X151294999Y-89600000D01*
X151270495Y-89598796D01*
X151246227Y-89595196D01*
X151222428Y-89589235D01*
X151199329Y-89580970D01*
X151177150Y-89570480D01*
X151156107Y-89557868D01*
X151136401Y-89543253D01*
X151118223Y-89526777D01*
X151101747Y-89508599D01*
X151087132Y-89488893D01*
X151074520Y-89467850D01*
X151064030Y-89445671D01*
X151055765Y-89422572D01*
X151049804Y-89398773D01*
X151046204Y-89374505D01*
X151045000Y-89350001D01*
X151045000Y-88449999D01*
X151046204Y-88425495D01*
X151049804Y-88401227D01*
X151055765Y-88377428D01*
X151064030Y-88354329D01*
X151074520Y-88332150D01*
X151087132Y-88311107D01*
X151101747Y-88291401D01*
X151118223Y-88273223D01*
X151136401Y-88256747D01*
X151156107Y-88242132D01*
X151177150Y-88229520D01*
X151199329Y-88219030D01*
X151222428Y-88210765D01*
X151246227Y-88204804D01*
X151270495Y-88201204D01*
X151294999Y-88200000D01*
X151945001Y-88200000D01*
X151969505Y-88201204D01*
G37*
G36*
X152874505Y-97216204D02*
G01*
X152898773Y-97219804D01*
X152922572Y-97225765D01*
X152945671Y-97234030D01*
X152967850Y-97244520D01*
X152988893Y-97257132D01*
X153008599Y-97271747D01*
X153026777Y-97288223D01*
X153043253Y-97306401D01*
X153057868Y-97326107D01*
X153070480Y-97347150D01*
X153080970Y-97369329D01*
X153089235Y-97392428D01*
X153095196Y-97416227D01*
X153098796Y-97440495D01*
X153100000Y-97464999D01*
X153100000Y-98115001D01*
X153098796Y-98139505D01*
X153095196Y-98163773D01*
X153089235Y-98187572D01*
X153080970Y-98210671D01*
X153070480Y-98232850D01*
X153057868Y-98253893D01*
X153043253Y-98273599D01*
X153026777Y-98291777D01*
X153008599Y-98308253D01*
X152988893Y-98322868D01*
X152967850Y-98335480D01*
X152945671Y-98345970D01*
X152922572Y-98354235D01*
X152898773Y-98360196D01*
X152874505Y-98363796D01*
X152850001Y-98365000D01*
X151949999Y-98365000D01*
X151925495Y-98363796D01*
X151901227Y-98360196D01*
X151877428Y-98354235D01*
X151854329Y-98345970D01*
X151832150Y-98335480D01*
X151811107Y-98322868D01*
X151791401Y-98308253D01*
X151773223Y-98291777D01*
X151756747Y-98273599D01*
X151742132Y-98253893D01*
X151729520Y-98232850D01*
X151719030Y-98210671D01*
X151710765Y-98187572D01*
X151704804Y-98163773D01*
X151701204Y-98139505D01*
X151700000Y-98115001D01*
X151700000Y-97464999D01*
X151701204Y-97440495D01*
X151704804Y-97416227D01*
X151710765Y-97392428D01*
X151719030Y-97369329D01*
X151729520Y-97347150D01*
X151742132Y-97326107D01*
X151756747Y-97306401D01*
X151773223Y-97288223D01*
X151791401Y-97271747D01*
X151811107Y-97257132D01*
X151832150Y-97244520D01*
X151854329Y-97234030D01*
X151877428Y-97225765D01*
X151901227Y-97219804D01*
X151925495Y-97216204D01*
X151949999Y-97215000D01*
X152850001Y-97215000D01*
X152874505Y-97216204D01*
G37*
G36*
X152874505Y-99266204D02*
G01*
X152898773Y-99269804D01*
X152922572Y-99275765D01*
X152945671Y-99284030D01*
X152967850Y-99294520D01*
X152988893Y-99307132D01*
X153008599Y-99321747D01*
X153026777Y-99338223D01*
X153043253Y-99356401D01*
X153057868Y-99376107D01*
X153070480Y-99397150D01*
X153080970Y-99419329D01*
X153089235Y-99442428D01*
X153095196Y-99466227D01*
X153098796Y-99490495D01*
X153100000Y-99514999D01*
X153100000Y-100165001D01*
X153098796Y-100189505D01*
X153095196Y-100213773D01*
X153089235Y-100237572D01*
X153080970Y-100260671D01*
X153070480Y-100282850D01*
X153057868Y-100303893D01*
X153043253Y-100323599D01*
X153026777Y-100341777D01*
X153008599Y-100358253D01*
X152988893Y-100372868D01*
X152967850Y-100385480D01*
X152945671Y-100395970D01*
X152922572Y-100404235D01*
X152898773Y-100410196D01*
X152874505Y-100413796D01*
X152850001Y-100415000D01*
X151949999Y-100415000D01*
X151925495Y-100413796D01*
X151901227Y-100410196D01*
X151877428Y-100404235D01*
X151854329Y-100395970D01*
X151832150Y-100385480D01*
X151811107Y-100372868D01*
X151791401Y-100358253D01*
X151773223Y-100341777D01*
X151756747Y-100323599D01*
X151742132Y-100303893D01*
X151729520Y-100282850D01*
X151719030Y-100260671D01*
X151710765Y-100237572D01*
X151704804Y-100213773D01*
X151701204Y-100189505D01*
X151700000Y-100165001D01*
X151700000Y-99514999D01*
X151701204Y-99490495D01*
X151704804Y-99466227D01*
X151710765Y-99442428D01*
X151719030Y-99419329D01*
X151729520Y-99397150D01*
X151742132Y-99376107D01*
X151756747Y-99356401D01*
X151773223Y-99338223D01*
X151791401Y-99321747D01*
X151811107Y-99307132D01*
X151832150Y-99294520D01*
X151854329Y-99284030D01*
X151877428Y-99275765D01*
X151901227Y-99269804D01*
X151925495Y-99266204D01*
X151949999Y-99265000D01*
X152850001Y-99265000D01*
X152874505Y-99266204D01*
G37*
G36*
X178274505Y-98486204D02*
G01*
X178298773Y-98489804D01*
X178322572Y-98495765D01*
X178345671Y-98504030D01*
X178367850Y-98514520D01*
X178388893Y-98527132D01*
X178408599Y-98541747D01*
X178426777Y-98558223D01*
X178443253Y-98576401D01*
X178457868Y-98596107D01*
X178470480Y-98617150D01*
X178480970Y-98639329D01*
X178489235Y-98662428D01*
X178495196Y-98686227D01*
X178498796Y-98710495D01*
X178500000Y-98734999D01*
X178500000Y-99385001D01*
X178498796Y-99409505D01*
X178495196Y-99433773D01*
X178489235Y-99457572D01*
X178480970Y-99480671D01*
X178470480Y-99502850D01*
X178457868Y-99523893D01*
X178443253Y-99543599D01*
X178426777Y-99561777D01*
X178408599Y-99578253D01*
X178388893Y-99592868D01*
X178367850Y-99605480D01*
X178345671Y-99615970D01*
X178322572Y-99624235D01*
X178298773Y-99630196D01*
X178274505Y-99633796D01*
X178250001Y-99635000D01*
X177349999Y-99635000D01*
X177325495Y-99633796D01*
X177301227Y-99630196D01*
X177277428Y-99624235D01*
X177254329Y-99615970D01*
X177232150Y-99605480D01*
X177211107Y-99592868D01*
X177191401Y-99578253D01*
X177173223Y-99561777D01*
X177156747Y-99543599D01*
X177142132Y-99523893D01*
X177129520Y-99502850D01*
X177119030Y-99480671D01*
X177110765Y-99457572D01*
X177104804Y-99433773D01*
X177101204Y-99409505D01*
X177100000Y-99385001D01*
X177100000Y-98734999D01*
X177101204Y-98710495D01*
X177104804Y-98686227D01*
X177110765Y-98662428D01*
X177119030Y-98639329D01*
X177129520Y-98617150D01*
X177142132Y-98596107D01*
X177156747Y-98576401D01*
X177173223Y-98558223D01*
X177191401Y-98541747D01*
X177211107Y-98527132D01*
X177232150Y-98514520D01*
X177254329Y-98504030D01*
X177277428Y-98495765D01*
X177301227Y-98489804D01*
X177325495Y-98486204D01*
X177349999Y-98485000D01*
X178250001Y-98485000D01*
X178274505Y-98486204D01*
G37*
G36*
X178274505Y-100536204D02*
G01*
X178298773Y-100539804D01*
X178322572Y-100545765D01*
X178345671Y-100554030D01*
X178367850Y-100564520D01*
X178388893Y-100577132D01*
X178408599Y-100591747D01*
X178426777Y-100608223D01*
X178443253Y-100626401D01*
X178457868Y-100646107D01*
X178470480Y-100667150D01*
X178480970Y-100689329D01*
X178489235Y-100712428D01*
X178495196Y-100736227D01*
X178498796Y-100760495D01*
X178500000Y-100784999D01*
X178500000Y-101435001D01*
X178498796Y-101459505D01*
X178495196Y-101483773D01*
X178489235Y-101507572D01*
X178480970Y-101530671D01*
X178470480Y-101552850D01*
X178457868Y-101573893D01*
X178443253Y-101593599D01*
X178426777Y-101611777D01*
X178408599Y-101628253D01*
X178388893Y-101642868D01*
X178367850Y-101655480D01*
X178345671Y-101665970D01*
X178322572Y-101674235D01*
X178298773Y-101680196D01*
X178274505Y-101683796D01*
X178250001Y-101685000D01*
X177349999Y-101685000D01*
X177325495Y-101683796D01*
X177301227Y-101680196D01*
X177277428Y-101674235D01*
X177254329Y-101665970D01*
X177232150Y-101655480D01*
X177211107Y-101642868D01*
X177191401Y-101628253D01*
X177173223Y-101611777D01*
X177156747Y-101593599D01*
X177142132Y-101573893D01*
X177129520Y-101552850D01*
X177119030Y-101530671D01*
X177110765Y-101507572D01*
X177104804Y-101483773D01*
X177101204Y-101459505D01*
X177100000Y-101435001D01*
X177100000Y-100784999D01*
X177101204Y-100760495D01*
X177104804Y-100736227D01*
X177110765Y-100712428D01*
X177119030Y-100689329D01*
X177129520Y-100667150D01*
X177142132Y-100646107D01*
X177156747Y-100626401D01*
X177173223Y-100608223D01*
X177191401Y-100591747D01*
X177211107Y-100577132D01*
X177232150Y-100564520D01*
X177254329Y-100554030D01*
X177277428Y-100545765D01*
X177301227Y-100539804D01*
X177325495Y-100536204D01*
X177349999Y-100535000D01*
X178250001Y-100535000D01*
X178274505Y-100536204D01*
G37*
G36*
X178274505Y-89841204D02*
G01*
X178298773Y-89844804D01*
X178322572Y-89850765D01*
X178345671Y-89859030D01*
X178367850Y-89869520D01*
X178388893Y-89882132D01*
X178408599Y-89896747D01*
X178426777Y-89913223D01*
X178443253Y-89931401D01*
X178457868Y-89951107D01*
X178470480Y-89972150D01*
X178480970Y-89994329D01*
X178489235Y-90017428D01*
X178495196Y-90041227D01*
X178498796Y-90065495D01*
X178500000Y-90089999D01*
X178500000Y-90740001D01*
X178498796Y-90764505D01*
X178495196Y-90788773D01*
X178489235Y-90812572D01*
X178480970Y-90835671D01*
X178470480Y-90857850D01*
X178457868Y-90878893D01*
X178443253Y-90898599D01*
X178426777Y-90916777D01*
X178408599Y-90933253D01*
X178388893Y-90947868D01*
X178367850Y-90960480D01*
X178345671Y-90970970D01*
X178322572Y-90979235D01*
X178298773Y-90985196D01*
X178274505Y-90988796D01*
X178250001Y-90990000D01*
X177349999Y-90990000D01*
X177325495Y-90988796D01*
X177301227Y-90985196D01*
X177277428Y-90979235D01*
X177254329Y-90970970D01*
X177232150Y-90960480D01*
X177211107Y-90947868D01*
X177191401Y-90933253D01*
X177173223Y-90916777D01*
X177156747Y-90898599D01*
X177142132Y-90878893D01*
X177129520Y-90857850D01*
X177119030Y-90835671D01*
X177110765Y-90812572D01*
X177104804Y-90788773D01*
X177101204Y-90764505D01*
X177100000Y-90740001D01*
X177100000Y-90089999D01*
X177101204Y-90065495D01*
X177104804Y-90041227D01*
X177110765Y-90017428D01*
X177119030Y-89994329D01*
X177129520Y-89972150D01*
X177142132Y-89951107D01*
X177156747Y-89931401D01*
X177173223Y-89913223D01*
X177191401Y-89896747D01*
X177211107Y-89882132D01*
X177232150Y-89869520D01*
X177254329Y-89859030D01*
X177277428Y-89850765D01*
X177301227Y-89844804D01*
X177325495Y-89841204D01*
X177349999Y-89840000D01*
X178250001Y-89840000D01*
X178274505Y-89841204D01*
G37*
G36*
X178274505Y-91891204D02*
G01*
X178298773Y-91894804D01*
X178322572Y-91900765D01*
X178345671Y-91909030D01*
X178367850Y-91919520D01*
X178388893Y-91932132D01*
X178408599Y-91946747D01*
X178426777Y-91963223D01*
X178443253Y-91981401D01*
X178457868Y-92001107D01*
X178470480Y-92022150D01*
X178480970Y-92044329D01*
X178489235Y-92067428D01*
X178495196Y-92091227D01*
X178498796Y-92115495D01*
X178500000Y-92139999D01*
X178500000Y-92790001D01*
X178498796Y-92814505D01*
X178495196Y-92838773D01*
X178489235Y-92862572D01*
X178480970Y-92885671D01*
X178470480Y-92907850D01*
X178457868Y-92928893D01*
X178443253Y-92948599D01*
X178426777Y-92966777D01*
X178408599Y-92983253D01*
X178388893Y-92997868D01*
X178367850Y-93010480D01*
X178345671Y-93020970D01*
X178322572Y-93029235D01*
X178298773Y-93035196D01*
X178274505Y-93038796D01*
X178250001Y-93040000D01*
X177349999Y-93040000D01*
X177325495Y-93038796D01*
X177301227Y-93035196D01*
X177277428Y-93029235D01*
X177254329Y-93020970D01*
X177232150Y-93010480D01*
X177211107Y-92997868D01*
X177191401Y-92983253D01*
X177173223Y-92966777D01*
X177156747Y-92948599D01*
X177142132Y-92928893D01*
X177129520Y-92907850D01*
X177119030Y-92885671D01*
X177110765Y-92862572D01*
X177104804Y-92838773D01*
X177101204Y-92814505D01*
X177100000Y-92790001D01*
X177100000Y-92139999D01*
X177101204Y-92115495D01*
X177104804Y-92091227D01*
X177110765Y-92067428D01*
X177119030Y-92044329D01*
X177129520Y-92022150D01*
X177142132Y-92001107D01*
X177156747Y-91981401D01*
X177173223Y-91963223D01*
X177191401Y-91946747D01*
X177211107Y-91932132D01*
X177232150Y-91919520D01*
X177254329Y-91909030D01*
X177277428Y-91900765D01*
X177301227Y-91894804D01*
X177325495Y-91891204D01*
X177349999Y-91890000D01*
X178250001Y-91890000D01*
X178274505Y-91891204D01*
G37*
G36*
X156684505Y-102296204D02*
G01*
X156708773Y-102299804D01*
X156732572Y-102305765D01*
X156755671Y-102314030D01*
X156777850Y-102324520D01*
X156798893Y-102337132D01*
X156818599Y-102351747D01*
X156836777Y-102368223D01*
X156853253Y-102386401D01*
X156867868Y-102406107D01*
X156880480Y-102427150D01*
X156890970Y-102449329D01*
X156899235Y-102472428D01*
X156905196Y-102496227D01*
X156908796Y-102520495D01*
X156910000Y-102544999D01*
X156910000Y-103195001D01*
X156908796Y-103219505D01*
X156905196Y-103243773D01*
X156899235Y-103267572D01*
X156890970Y-103290671D01*
X156880480Y-103312850D01*
X156867868Y-103333893D01*
X156853253Y-103353599D01*
X156836777Y-103371777D01*
X156818599Y-103388253D01*
X156798893Y-103402868D01*
X156777850Y-103415480D01*
X156755671Y-103425970D01*
X156732572Y-103434235D01*
X156708773Y-103440196D01*
X156684505Y-103443796D01*
X156660001Y-103445000D01*
X155759999Y-103445000D01*
X155735495Y-103443796D01*
X155711227Y-103440196D01*
X155687428Y-103434235D01*
X155664329Y-103425970D01*
X155642150Y-103415480D01*
X155621107Y-103402868D01*
X155601401Y-103388253D01*
X155583223Y-103371777D01*
X155566747Y-103353599D01*
X155552132Y-103333893D01*
X155539520Y-103312850D01*
X155529030Y-103290671D01*
X155520765Y-103267572D01*
X155514804Y-103243773D01*
X155511204Y-103219505D01*
X155510000Y-103195001D01*
X155510000Y-102544999D01*
X155511204Y-102520495D01*
X155514804Y-102496227D01*
X155520765Y-102472428D01*
X155529030Y-102449329D01*
X155539520Y-102427150D01*
X155552132Y-102406107D01*
X155566747Y-102386401D01*
X155583223Y-102368223D01*
X155601401Y-102351747D01*
X155621107Y-102337132D01*
X155642150Y-102324520D01*
X155664329Y-102314030D01*
X155687428Y-102305765D01*
X155711227Y-102299804D01*
X155735495Y-102296204D01*
X155759999Y-102295000D01*
X156660001Y-102295000D01*
X156684505Y-102296204D01*
G37*
G36*
X156684505Y-104346204D02*
G01*
X156708773Y-104349804D01*
X156732572Y-104355765D01*
X156755671Y-104364030D01*
X156777850Y-104374520D01*
X156798893Y-104387132D01*
X156818599Y-104401747D01*
X156836777Y-104418223D01*
X156853253Y-104436401D01*
X156867868Y-104456107D01*
X156880480Y-104477150D01*
X156890970Y-104499329D01*
X156899235Y-104522428D01*
X156905196Y-104546227D01*
X156908796Y-104570495D01*
X156910000Y-104594999D01*
X156910000Y-105245001D01*
X156908796Y-105269505D01*
X156905196Y-105293773D01*
X156899235Y-105317572D01*
X156890970Y-105340671D01*
X156880480Y-105362850D01*
X156867868Y-105383893D01*
X156853253Y-105403599D01*
X156836777Y-105421777D01*
X156818599Y-105438253D01*
X156798893Y-105452868D01*
X156777850Y-105465480D01*
X156755671Y-105475970D01*
X156732572Y-105484235D01*
X156708773Y-105490196D01*
X156684505Y-105493796D01*
X156660001Y-105495000D01*
X155759999Y-105495000D01*
X155735495Y-105493796D01*
X155711227Y-105490196D01*
X155687428Y-105484235D01*
X155664329Y-105475970D01*
X155642150Y-105465480D01*
X155621107Y-105452868D01*
X155601401Y-105438253D01*
X155583223Y-105421777D01*
X155566747Y-105403599D01*
X155552132Y-105383893D01*
X155539520Y-105362850D01*
X155529030Y-105340671D01*
X155520765Y-105317572D01*
X155514804Y-105293773D01*
X155511204Y-105269505D01*
X155510000Y-105245001D01*
X155510000Y-104594999D01*
X155511204Y-104570495D01*
X155514804Y-104546227D01*
X155520765Y-104522428D01*
X155529030Y-104499329D01*
X155539520Y-104477150D01*
X155552132Y-104456107D01*
X155566747Y-104436401D01*
X155583223Y-104418223D01*
X155601401Y-104401747D01*
X155621107Y-104387132D01*
X155642150Y-104374520D01*
X155664329Y-104364030D01*
X155687428Y-104355765D01*
X155711227Y-104349804D01*
X155735495Y-104346204D01*
X155759999Y-104345000D01*
X156660001Y-104345000D01*
X156684505Y-104346204D01*
G37*
G36*
X174464505Y-102296204D02*
G01*
X174488773Y-102299804D01*
X174512572Y-102305765D01*
X174535671Y-102314030D01*
X174557850Y-102324520D01*
X174578893Y-102337132D01*
X174598599Y-102351747D01*
X174616777Y-102368223D01*
X174633253Y-102386401D01*
X174647868Y-102406107D01*
X174660480Y-102427150D01*
X174670970Y-102449329D01*
X174679235Y-102472428D01*
X174685196Y-102496227D01*
X174688796Y-102520495D01*
X174690000Y-102544999D01*
X174690000Y-103195001D01*
X174688796Y-103219505D01*
X174685196Y-103243773D01*
X174679235Y-103267572D01*
X174670970Y-103290671D01*
X174660480Y-103312850D01*
X174647868Y-103333893D01*
X174633253Y-103353599D01*
X174616777Y-103371777D01*
X174598599Y-103388253D01*
X174578893Y-103402868D01*
X174557850Y-103415480D01*
X174535671Y-103425970D01*
X174512572Y-103434235D01*
X174488773Y-103440196D01*
X174464505Y-103443796D01*
X174440001Y-103445000D01*
X173539999Y-103445000D01*
X173515495Y-103443796D01*
X173491227Y-103440196D01*
X173467428Y-103434235D01*
X173444329Y-103425970D01*
X173422150Y-103415480D01*
X173401107Y-103402868D01*
X173381401Y-103388253D01*
X173363223Y-103371777D01*
X173346747Y-103353599D01*
X173332132Y-103333893D01*
X173319520Y-103312850D01*
X173309030Y-103290671D01*
X173300765Y-103267572D01*
X173294804Y-103243773D01*
X173291204Y-103219505D01*
X173290000Y-103195001D01*
X173290000Y-102544999D01*
X173291204Y-102520495D01*
X173294804Y-102496227D01*
X173300765Y-102472428D01*
X173309030Y-102449329D01*
X173319520Y-102427150D01*
X173332132Y-102406107D01*
X173346747Y-102386401D01*
X173363223Y-102368223D01*
X173381401Y-102351747D01*
X173401107Y-102337132D01*
X173422150Y-102324520D01*
X173444329Y-102314030D01*
X173467428Y-102305765D01*
X173491227Y-102299804D01*
X173515495Y-102296204D01*
X173539999Y-102295000D01*
X174440001Y-102295000D01*
X174464505Y-102296204D01*
G37*
G36*
X174464505Y-104346204D02*
G01*
X174488773Y-104349804D01*
X174512572Y-104355765D01*
X174535671Y-104364030D01*
X174557850Y-104374520D01*
X174578893Y-104387132D01*
X174598599Y-104401747D01*
X174616777Y-104418223D01*
X174633253Y-104436401D01*
X174647868Y-104456107D01*
X174660480Y-104477150D01*
X174670970Y-104499329D01*
X174679235Y-104522428D01*
X174685196Y-104546227D01*
X174688796Y-104570495D01*
X174690000Y-104594999D01*
X174690000Y-105245001D01*
X174688796Y-105269505D01*
X174685196Y-105293773D01*
X174679235Y-105317572D01*
X174670970Y-105340671D01*
X174660480Y-105362850D01*
X174647868Y-105383893D01*
X174633253Y-105403599D01*
X174616777Y-105421777D01*
X174598599Y-105438253D01*
X174578893Y-105452868D01*
X174557850Y-105465480D01*
X174535671Y-105475970D01*
X174512572Y-105484235D01*
X174488773Y-105490196D01*
X174464505Y-105493796D01*
X174440001Y-105495000D01*
X173539999Y-105495000D01*
X173515495Y-105493796D01*
X173491227Y-105490196D01*
X173467428Y-105484235D01*
X173444329Y-105475970D01*
X173422150Y-105465480D01*
X173401107Y-105452868D01*
X173381401Y-105438253D01*
X173363223Y-105421777D01*
X173346747Y-105403599D01*
X173332132Y-105383893D01*
X173319520Y-105362850D01*
X173309030Y-105340671D01*
X173300765Y-105317572D01*
X173294804Y-105293773D01*
X173291204Y-105269505D01*
X173290000Y-105245001D01*
X173290000Y-104594999D01*
X173291204Y-104570495D01*
X173294804Y-104546227D01*
X173300765Y-104522428D01*
X173309030Y-104499329D01*
X173319520Y-104477150D01*
X173332132Y-104456107D01*
X173346747Y-104436401D01*
X173363223Y-104418223D01*
X173381401Y-104401747D01*
X173401107Y-104387132D01*
X173422150Y-104374520D01*
X173444329Y-104364030D01*
X173467428Y-104355765D01*
X173491227Y-104349804D01*
X173515495Y-104346204D01*
X173539999Y-104345000D01*
X174440001Y-104345000D01*
X174464505Y-104346204D01*
G37*
G36*
X170654505Y-104346204D02*
G01*
X170678773Y-104349804D01*
X170702572Y-104355765D01*
X170725671Y-104364030D01*
X170747850Y-104374520D01*
X170768893Y-104387132D01*
X170788599Y-104401747D01*
X170806777Y-104418223D01*
X170823253Y-104436401D01*
X170837868Y-104456107D01*
X170850480Y-104477150D01*
X170860970Y-104499329D01*
X170869235Y-104522428D01*
X170875196Y-104546227D01*
X170878796Y-104570495D01*
X170880000Y-104594999D01*
X170880000Y-105245001D01*
X170878796Y-105269505D01*
X170875196Y-105293773D01*
X170869235Y-105317572D01*
X170860970Y-105340671D01*
X170850480Y-105362850D01*
X170837868Y-105383893D01*
X170823253Y-105403599D01*
X170806777Y-105421777D01*
X170788599Y-105438253D01*
X170768893Y-105452868D01*
X170747850Y-105465480D01*
X170725671Y-105475970D01*
X170702572Y-105484235D01*
X170678773Y-105490196D01*
X170654505Y-105493796D01*
X170630001Y-105495000D01*
X169729999Y-105495000D01*
X169705495Y-105493796D01*
X169681227Y-105490196D01*
X169657428Y-105484235D01*
X169634329Y-105475970D01*
X169612150Y-105465480D01*
X169591107Y-105452868D01*
X169571401Y-105438253D01*
X169553223Y-105421777D01*
X169536747Y-105403599D01*
X169522132Y-105383893D01*
X169509520Y-105362850D01*
X169499030Y-105340671D01*
X169490765Y-105317572D01*
X169484804Y-105293773D01*
X169481204Y-105269505D01*
X169480000Y-105245001D01*
X169480000Y-104594999D01*
X169481204Y-104570495D01*
X169484804Y-104546227D01*
X169490765Y-104522428D01*
X169499030Y-104499329D01*
X169509520Y-104477150D01*
X169522132Y-104456107D01*
X169536747Y-104436401D01*
X169553223Y-104418223D01*
X169571401Y-104401747D01*
X169591107Y-104387132D01*
X169612150Y-104374520D01*
X169634329Y-104364030D01*
X169657428Y-104355765D01*
X169681227Y-104349804D01*
X169705495Y-104346204D01*
X169729999Y-104345000D01*
X170630001Y-104345000D01*
X170654505Y-104346204D01*
G37*
G36*
X170654505Y-102296204D02*
G01*
X170678773Y-102299804D01*
X170702572Y-102305765D01*
X170725671Y-102314030D01*
X170747850Y-102324520D01*
X170768893Y-102337132D01*
X170788599Y-102351747D01*
X170806777Y-102368223D01*
X170823253Y-102386401D01*
X170837868Y-102406107D01*
X170850480Y-102427150D01*
X170860970Y-102449329D01*
X170869235Y-102472428D01*
X170875196Y-102496227D01*
X170878796Y-102520495D01*
X170880000Y-102544999D01*
X170880000Y-103195001D01*
X170878796Y-103219505D01*
X170875196Y-103243773D01*
X170869235Y-103267572D01*
X170860970Y-103290671D01*
X170850480Y-103312850D01*
X170837868Y-103333893D01*
X170823253Y-103353599D01*
X170806777Y-103371777D01*
X170788599Y-103388253D01*
X170768893Y-103402868D01*
X170747850Y-103415480D01*
X170725671Y-103425970D01*
X170702572Y-103434235D01*
X170678773Y-103440196D01*
X170654505Y-103443796D01*
X170630001Y-103445000D01*
X169729999Y-103445000D01*
X169705495Y-103443796D01*
X169681227Y-103440196D01*
X169657428Y-103434235D01*
X169634329Y-103425970D01*
X169612150Y-103415480D01*
X169591107Y-103402868D01*
X169571401Y-103388253D01*
X169553223Y-103371777D01*
X169536747Y-103353599D01*
X169522132Y-103333893D01*
X169509520Y-103312850D01*
X169499030Y-103290671D01*
X169490765Y-103267572D01*
X169484804Y-103243773D01*
X169481204Y-103219505D01*
X169480000Y-103195001D01*
X169480000Y-102544999D01*
X169481204Y-102520495D01*
X169484804Y-102496227D01*
X169490765Y-102472428D01*
X169499030Y-102449329D01*
X169509520Y-102427150D01*
X169522132Y-102406107D01*
X169536747Y-102386401D01*
X169553223Y-102368223D01*
X169571401Y-102351747D01*
X169591107Y-102337132D01*
X169612150Y-102324520D01*
X169634329Y-102314030D01*
X169657428Y-102305765D01*
X169681227Y-102299804D01*
X169705495Y-102296204D01*
X169729999Y-102295000D01*
X170630001Y-102295000D01*
X170654505Y-102296204D01*
G37*
D18*
X185420000Y-80010000D03*
D19*
X185420000Y-82550000D03*
D18*
X185420000Y-102870000D03*
D19*
X185420000Y-100330000D03*
D18*
X185420000Y-92710000D03*
D19*
X185420000Y-90170000D03*
D18*
X185420000Y-69215000D03*
D19*
X185420000Y-71755000D03*
D18*
X136525000Y-96520000D03*
X133985000Y-96520000D03*
D19*
X131445000Y-96520000D03*
D11*
G36*
X163934505Y-83756204D02*
G01*
X163958773Y-83759804D01*
X163982572Y-83765765D01*
X164005671Y-83774030D01*
X164027850Y-83784520D01*
X164048893Y-83797132D01*
X164068599Y-83811747D01*
X164086777Y-83828223D01*
X164103253Y-83846401D01*
X164117868Y-83866107D01*
X164130480Y-83887150D01*
X164140970Y-83909329D01*
X164149235Y-83932428D01*
X164155196Y-83956227D01*
X164158796Y-83980495D01*
X164160000Y-84004999D01*
X164160000Y-84905001D01*
X164158796Y-84929505D01*
X164155196Y-84953773D01*
X164149235Y-84977572D01*
X164140970Y-85000671D01*
X164130480Y-85022850D01*
X164117868Y-85043893D01*
X164103253Y-85063599D01*
X164086777Y-85081777D01*
X164068599Y-85098253D01*
X164048893Y-85112868D01*
X164027850Y-85125480D01*
X164005671Y-85135970D01*
X163982572Y-85144235D01*
X163958773Y-85150196D01*
X163934505Y-85153796D01*
X163910001Y-85155000D01*
X163259999Y-85155000D01*
X163235495Y-85153796D01*
X163211227Y-85150196D01*
X163187428Y-85144235D01*
X163164329Y-85135970D01*
X163142150Y-85125480D01*
X163121107Y-85112868D01*
X163101401Y-85098253D01*
X163083223Y-85081777D01*
X163066747Y-85063599D01*
X163052132Y-85043893D01*
X163039520Y-85022850D01*
X163029030Y-85000671D01*
X163020765Y-84977572D01*
X163014804Y-84953773D01*
X163011204Y-84929505D01*
X163010000Y-84905001D01*
X163010000Y-84004999D01*
X163011204Y-83980495D01*
X163014804Y-83956227D01*
X163020765Y-83932428D01*
X163029030Y-83909329D01*
X163039520Y-83887150D01*
X163052132Y-83866107D01*
X163066747Y-83846401D01*
X163083223Y-83828223D01*
X163101401Y-83811747D01*
X163121107Y-83797132D01*
X163142150Y-83784520D01*
X163164329Y-83774030D01*
X163187428Y-83765765D01*
X163211227Y-83759804D01*
X163235495Y-83756204D01*
X163259999Y-83755000D01*
X163910001Y-83755000D01*
X163934505Y-83756204D01*
G37*
G36*
X161884505Y-83756204D02*
G01*
X161908773Y-83759804D01*
X161932572Y-83765765D01*
X161955671Y-83774030D01*
X161977850Y-83784520D01*
X161998893Y-83797132D01*
X162018599Y-83811747D01*
X162036777Y-83828223D01*
X162053253Y-83846401D01*
X162067868Y-83866107D01*
X162080480Y-83887150D01*
X162090970Y-83909329D01*
X162099235Y-83932428D01*
X162105196Y-83956227D01*
X162108796Y-83980495D01*
X162110000Y-84004999D01*
X162110000Y-84905001D01*
X162108796Y-84929505D01*
X162105196Y-84953773D01*
X162099235Y-84977572D01*
X162090970Y-85000671D01*
X162080480Y-85022850D01*
X162067868Y-85043893D01*
X162053253Y-85063599D01*
X162036777Y-85081777D01*
X162018599Y-85098253D01*
X161998893Y-85112868D01*
X161977850Y-85125480D01*
X161955671Y-85135970D01*
X161932572Y-85144235D01*
X161908773Y-85150196D01*
X161884505Y-85153796D01*
X161860001Y-85155000D01*
X161209999Y-85155000D01*
X161185495Y-85153796D01*
X161161227Y-85150196D01*
X161137428Y-85144235D01*
X161114329Y-85135970D01*
X161092150Y-85125480D01*
X161071107Y-85112868D01*
X161051401Y-85098253D01*
X161033223Y-85081777D01*
X161016747Y-85063599D01*
X161002132Y-85043893D01*
X160989520Y-85022850D01*
X160979030Y-85000671D01*
X160970765Y-84977572D01*
X160964804Y-84953773D01*
X160961204Y-84929505D01*
X160960000Y-84905001D01*
X160960000Y-84004999D01*
X160961204Y-83980495D01*
X160964804Y-83956227D01*
X160970765Y-83932428D01*
X160979030Y-83909329D01*
X160989520Y-83887150D01*
X161002132Y-83866107D01*
X161016747Y-83846401D01*
X161033223Y-83828223D01*
X161051401Y-83811747D01*
X161071107Y-83797132D01*
X161092150Y-83784520D01*
X161114329Y-83774030D01*
X161137428Y-83765765D01*
X161161227Y-83759804D01*
X161185495Y-83756204D01*
X161209999Y-83755000D01*
X161860001Y-83755000D01*
X161884505Y-83756204D01*
G37*
G36*
X168234505Y-98361204D02*
G01*
X168258773Y-98364804D01*
X168282572Y-98370765D01*
X168305671Y-98379030D01*
X168327850Y-98389520D01*
X168348893Y-98402132D01*
X168368599Y-98416747D01*
X168386777Y-98433223D01*
X168403253Y-98451401D01*
X168417868Y-98471107D01*
X168430480Y-98492150D01*
X168440970Y-98514329D01*
X168449235Y-98537428D01*
X168455196Y-98561227D01*
X168458796Y-98585495D01*
X168460000Y-98609999D01*
X168460000Y-99510001D01*
X168458796Y-99534505D01*
X168455196Y-99558773D01*
X168449235Y-99582572D01*
X168440970Y-99605671D01*
X168430480Y-99627850D01*
X168417868Y-99648893D01*
X168403253Y-99668599D01*
X168386777Y-99686777D01*
X168368599Y-99703253D01*
X168348893Y-99717868D01*
X168327850Y-99730480D01*
X168305671Y-99740970D01*
X168282572Y-99749235D01*
X168258773Y-99755196D01*
X168234505Y-99758796D01*
X168210001Y-99760000D01*
X167559999Y-99760000D01*
X167535495Y-99758796D01*
X167511227Y-99755196D01*
X167487428Y-99749235D01*
X167464329Y-99740970D01*
X167442150Y-99730480D01*
X167421107Y-99717868D01*
X167401401Y-99703253D01*
X167383223Y-99686777D01*
X167366747Y-99668599D01*
X167352132Y-99648893D01*
X167339520Y-99627850D01*
X167329030Y-99605671D01*
X167320765Y-99582572D01*
X167314804Y-99558773D01*
X167311204Y-99534505D01*
X167310000Y-99510001D01*
X167310000Y-98609999D01*
X167311204Y-98585495D01*
X167314804Y-98561227D01*
X167320765Y-98537428D01*
X167329030Y-98514329D01*
X167339520Y-98492150D01*
X167352132Y-98471107D01*
X167366747Y-98451401D01*
X167383223Y-98433223D01*
X167401401Y-98416747D01*
X167421107Y-98402132D01*
X167442150Y-98389520D01*
X167464329Y-98379030D01*
X167487428Y-98370765D01*
X167511227Y-98364804D01*
X167535495Y-98361204D01*
X167559999Y-98360000D01*
X168210001Y-98360000D01*
X168234505Y-98361204D01*
G37*
G36*
X170284505Y-98361204D02*
G01*
X170308773Y-98364804D01*
X170332572Y-98370765D01*
X170355671Y-98379030D01*
X170377850Y-98389520D01*
X170398893Y-98402132D01*
X170418599Y-98416747D01*
X170436777Y-98433223D01*
X170453253Y-98451401D01*
X170467868Y-98471107D01*
X170480480Y-98492150D01*
X170490970Y-98514329D01*
X170499235Y-98537428D01*
X170505196Y-98561227D01*
X170508796Y-98585495D01*
X170510000Y-98609999D01*
X170510000Y-99510001D01*
X170508796Y-99534505D01*
X170505196Y-99558773D01*
X170499235Y-99582572D01*
X170490970Y-99605671D01*
X170480480Y-99627850D01*
X170467868Y-99648893D01*
X170453253Y-99668599D01*
X170436777Y-99686777D01*
X170418599Y-99703253D01*
X170398893Y-99717868D01*
X170377850Y-99730480D01*
X170355671Y-99740970D01*
X170332572Y-99749235D01*
X170308773Y-99755196D01*
X170284505Y-99758796D01*
X170260001Y-99760000D01*
X169609999Y-99760000D01*
X169585495Y-99758796D01*
X169561227Y-99755196D01*
X169537428Y-99749235D01*
X169514329Y-99740970D01*
X169492150Y-99730480D01*
X169471107Y-99717868D01*
X169451401Y-99703253D01*
X169433223Y-99686777D01*
X169416747Y-99668599D01*
X169402132Y-99648893D01*
X169389520Y-99627850D01*
X169379030Y-99605671D01*
X169370765Y-99582572D01*
X169364804Y-99558773D01*
X169361204Y-99534505D01*
X169360000Y-99510001D01*
X169360000Y-98609999D01*
X169361204Y-98585495D01*
X169364804Y-98561227D01*
X169370765Y-98537428D01*
X169379030Y-98514329D01*
X169389520Y-98492150D01*
X169402132Y-98471107D01*
X169416747Y-98451401D01*
X169433223Y-98433223D01*
X169451401Y-98416747D01*
X169471107Y-98402132D01*
X169492150Y-98389520D01*
X169514329Y-98379030D01*
X169537428Y-98370765D01*
X169561227Y-98364804D01*
X169585495Y-98361204D01*
X169609999Y-98360000D01*
X170260001Y-98360000D01*
X170284505Y-98361204D01*
G37*
G36*
X163934505Y-90741204D02*
G01*
X163958773Y-90744804D01*
X163982572Y-90750765D01*
X164005671Y-90759030D01*
X164027850Y-90769520D01*
X164048893Y-90782132D01*
X164068599Y-90796747D01*
X164086777Y-90813223D01*
X164103253Y-90831401D01*
X164117868Y-90851107D01*
X164130480Y-90872150D01*
X164140970Y-90894329D01*
X164149235Y-90917428D01*
X164155196Y-90941227D01*
X164158796Y-90965495D01*
X164160000Y-90989999D01*
X164160000Y-91890001D01*
X164158796Y-91914505D01*
X164155196Y-91938773D01*
X164149235Y-91962572D01*
X164140970Y-91985671D01*
X164130480Y-92007850D01*
X164117868Y-92028893D01*
X164103253Y-92048599D01*
X164086777Y-92066777D01*
X164068599Y-92083253D01*
X164048893Y-92097868D01*
X164027850Y-92110480D01*
X164005671Y-92120970D01*
X163982572Y-92129235D01*
X163958773Y-92135196D01*
X163934505Y-92138796D01*
X163910001Y-92140000D01*
X163259999Y-92140000D01*
X163235495Y-92138796D01*
X163211227Y-92135196D01*
X163187428Y-92129235D01*
X163164329Y-92120970D01*
X163142150Y-92110480D01*
X163121107Y-92097868D01*
X163101401Y-92083253D01*
X163083223Y-92066777D01*
X163066747Y-92048599D01*
X163052132Y-92028893D01*
X163039520Y-92007850D01*
X163029030Y-91985671D01*
X163020765Y-91962572D01*
X163014804Y-91938773D01*
X163011204Y-91914505D01*
X163010000Y-91890001D01*
X163010000Y-90989999D01*
X163011204Y-90965495D01*
X163014804Y-90941227D01*
X163020765Y-90917428D01*
X163029030Y-90894329D01*
X163039520Y-90872150D01*
X163052132Y-90851107D01*
X163066747Y-90831401D01*
X163083223Y-90813223D01*
X163101401Y-90796747D01*
X163121107Y-90782132D01*
X163142150Y-90769520D01*
X163164329Y-90759030D01*
X163187428Y-90750765D01*
X163211227Y-90744804D01*
X163235495Y-90741204D01*
X163259999Y-90740000D01*
X163910001Y-90740000D01*
X163934505Y-90741204D01*
G37*
G36*
X161884505Y-90741204D02*
G01*
X161908773Y-90744804D01*
X161932572Y-90750765D01*
X161955671Y-90759030D01*
X161977850Y-90769520D01*
X161998893Y-90782132D01*
X162018599Y-90796747D01*
X162036777Y-90813223D01*
X162053253Y-90831401D01*
X162067868Y-90851107D01*
X162080480Y-90872150D01*
X162090970Y-90894329D01*
X162099235Y-90917428D01*
X162105196Y-90941227D01*
X162108796Y-90965495D01*
X162110000Y-90989999D01*
X162110000Y-91890001D01*
X162108796Y-91914505D01*
X162105196Y-91938773D01*
X162099235Y-91962572D01*
X162090970Y-91985671D01*
X162080480Y-92007850D01*
X162067868Y-92028893D01*
X162053253Y-92048599D01*
X162036777Y-92066777D01*
X162018599Y-92083253D01*
X161998893Y-92097868D01*
X161977850Y-92110480D01*
X161955671Y-92120970D01*
X161932572Y-92129235D01*
X161908773Y-92135196D01*
X161884505Y-92138796D01*
X161860001Y-92140000D01*
X161209999Y-92140000D01*
X161185495Y-92138796D01*
X161161227Y-92135196D01*
X161137428Y-92129235D01*
X161114329Y-92120970D01*
X161092150Y-92110480D01*
X161071107Y-92097868D01*
X161051401Y-92083253D01*
X161033223Y-92066777D01*
X161016747Y-92048599D01*
X161002132Y-92028893D01*
X160989520Y-92007850D01*
X160979030Y-91985671D01*
X160970765Y-91962572D01*
X160964804Y-91938773D01*
X160961204Y-91914505D01*
X160960000Y-91890001D01*
X160960000Y-90989999D01*
X160961204Y-90965495D01*
X160964804Y-90941227D01*
X160970765Y-90917428D01*
X160979030Y-90894329D01*
X160989520Y-90872150D01*
X161002132Y-90851107D01*
X161016747Y-90831401D01*
X161033223Y-90813223D01*
X161051401Y-90796747D01*
X161071107Y-90782132D01*
X161092150Y-90769520D01*
X161114329Y-90759030D01*
X161137428Y-90750765D01*
X161161227Y-90744804D01*
X161185495Y-90741204D01*
X161209999Y-90740000D01*
X161860001Y-90740000D01*
X161884505Y-90741204D01*
G37*
G36*
X135307504Y-89931204D02*
G01*
X135331773Y-89934804D01*
X135355571Y-89940765D01*
X135378671Y-89949030D01*
X135400849Y-89959520D01*
X135421893Y-89972133D01*
X135441598Y-89986747D01*
X135459777Y-90003223D01*
X135476253Y-90021402D01*
X135490867Y-90041107D01*
X135503480Y-90062151D01*
X135513970Y-90084329D01*
X135522235Y-90107429D01*
X135528196Y-90131227D01*
X135531796Y-90155496D01*
X135533000Y-90180000D01*
X135533000Y-91430000D01*
X135531796Y-91454504D01*
X135528196Y-91478773D01*
X135522235Y-91502571D01*
X135513970Y-91525671D01*
X135503480Y-91547849D01*
X135490867Y-91568893D01*
X135476253Y-91588598D01*
X135459777Y-91606777D01*
X135441598Y-91623253D01*
X135421893Y-91637867D01*
X135400849Y-91650480D01*
X135378671Y-91660970D01*
X135355571Y-91669235D01*
X135331773Y-91675196D01*
X135307504Y-91678796D01*
X135283000Y-91680000D01*
X134358000Y-91680000D01*
X134333496Y-91678796D01*
X134309227Y-91675196D01*
X134285429Y-91669235D01*
X134262329Y-91660970D01*
X134240151Y-91650480D01*
X134219107Y-91637867D01*
X134199402Y-91623253D01*
X134181223Y-91606777D01*
X134164747Y-91588598D01*
X134150133Y-91568893D01*
X134137520Y-91547849D01*
X134127030Y-91525671D01*
X134118765Y-91502571D01*
X134112804Y-91478773D01*
X134109204Y-91454504D01*
X134108000Y-91430000D01*
X134108000Y-90180000D01*
X134109204Y-90155496D01*
X134112804Y-90131227D01*
X134118765Y-90107429D01*
X134127030Y-90084329D01*
X134137520Y-90062151D01*
X134150133Y-90041107D01*
X134164747Y-90021402D01*
X134181223Y-90003223D01*
X134199402Y-89986747D01*
X134219107Y-89972133D01*
X134240151Y-89959520D01*
X134262329Y-89949030D01*
X134285429Y-89940765D01*
X134309227Y-89934804D01*
X134333496Y-89931204D01*
X134358000Y-89930000D01*
X135283000Y-89930000D01*
X135307504Y-89931204D01*
G37*
G36*
X138282504Y-89931204D02*
G01*
X138306773Y-89934804D01*
X138330571Y-89940765D01*
X138353671Y-89949030D01*
X138375849Y-89959520D01*
X138396893Y-89972133D01*
X138416598Y-89986747D01*
X138434777Y-90003223D01*
X138451253Y-90021402D01*
X138465867Y-90041107D01*
X138478480Y-90062151D01*
X138488970Y-90084329D01*
X138497235Y-90107429D01*
X138503196Y-90131227D01*
X138506796Y-90155496D01*
X138508000Y-90180000D01*
X138508000Y-91430000D01*
X138506796Y-91454504D01*
X138503196Y-91478773D01*
X138497235Y-91502571D01*
X138488970Y-91525671D01*
X138478480Y-91547849D01*
X138465867Y-91568893D01*
X138451253Y-91588598D01*
X138434777Y-91606777D01*
X138416598Y-91623253D01*
X138396893Y-91637867D01*
X138375849Y-91650480D01*
X138353671Y-91660970D01*
X138330571Y-91669235D01*
X138306773Y-91675196D01*
X138282504Y-91678796D01*
X138258000Y-91680000D01*
X137333000Y-91680000D01*
X137308496Y-91678796D01*
X137284227Y-91675196D01*
X137260429Y-91669235D01*
X137237329Y-91660970D01*
X137215151Y-91650480D01*
X137194107Y-91637867D01*
X137174402Y-91623253D01*
X137156223Y-91606777D01*
X137139747Y-91588598D01*
X137125133Y-91568893D01*
X137112520Y-91547849D01*
X137102030Y-91525671D01*
X137093765Y-91502571D01*
X137087804Y-91478773D01*
X137084204Y-91454504D01*
X137083000Y-91430000D01*
X137083000Y-90180000D01*
X137084204Y-90155496D01*
X137087804Y-90131227D01*
X137093765Y-90107429D01*
X137102030Y-90084329D01*
X137112520Y-90062151D01*
X137125133Y-90041107D01*
X137139747Y-90021402D01*
X137156223Y-90003223D01*
X137174402Y-89986747D01*
X137194107Y-89972133D01*
X137215151Y-89959520D01*
X137237329Y-89949030D01*
X137260429Y-89940765D01*
X137284227Y-89934804D01*
X137308496Y-89931204D01*
X137333000Y-89930000D01*
X138258000Y-89930000D01*
X138282504Y-89931204D01*
G37*
G36*
X175909504Y-68068704D02*
G01*
X175933773Y-68072304D01*
X175957571Y-68078265D01*
X175980671Y-68086530D01*
X176002849Y-68097020D01*
X176023893Y-68109633D01*
X176043598Y-68124247D01*
X176061777Y-68140723D01*
X176078253Y-68158902D01*
X176092867Y-68178607D01*
X176105480Y-68199651D01*
X176115970Y-68221829D01*
X176124235Y-68244929D01*
X176130196Y-68268727D01*
X176133796Y-68292996D01*
X176135000Y-68317500D01*
X176135000Y-69242500D01*
X176133796Y-69267004D01*
X176130196Y-69291273D01*
X176124235Y-69315071D01*
X176115970Y-69338171D01*
X176105480Y-69360349D01*
X176092867Y-69381393D01*
X176078253Y-69401098D01*
X176061777Y-69419277D01*
X176043598Y-69435753D01*
X176023893Y-69450367D01*
X176002849Y-69462980D01*
X175980671Y-69473470D01*
X175957571Y-69481735D01*
X175933773Y-69487696D01*
X175909504Y-69491296D01*
X175885000Y-69492500D01*
X174635000Y-69492500D01*
X174610496Y-69491296D01*
X174586227Y-69487696D01*
X174562429Y-69481735D01*
X174539329Y-69473470D01*
X174517151Y-69462980D01*
X174496107Y-69450367D01*
X174476402Y-69435753D01*
X174458223Y-69419277D01*
X174441747Y-69401098D01*
X174427133Y-69381393D01*
X174414520Y-69360349D01*
X174404030Y-69338171D01*
X174395765Y-69315071D01*
X174389804Y-69291273D01*
X174386204Y-69267004D01*
X174385000Y-69242500D01*
X174385000Y-68317500D01*
X174386204Y-68292996D01*
X174389804Y-68268727D01*
X174395765Y-68244929D01*
X174404030Y-68221829D01*
X174414520Y-68199651D01*
X174427133Y-68178607D01*
X174441747Y-68158902D01*
X174458223Y-68140723D01*
X174476402Y-68124247D01*
X174496107Y-68109633D01*
X174517151Y-68097020D01*
X174539329Y-68086530D01*
X174562429Y-68078265D01*
X174586227Y-68072304D01*
X174610496Y-68068704D01*
X174635000Y-68067500D01*
X175885000Y-68067500D01*
X175909504Y-68068704D01*
G37*
G36*
X175909504Y-71043704D02*
G01*
X175933773Y-71047304D01*
X175957571Y-71053265D01*
X175980671Y-71061530D01*
X176002849Y-71072020D01*
X176023893Y-71084633D01*
X176043598Y-71099247D01*
X176061777Y-71115723D01*
X176078253Y-71133902D01*
X176092867Y-71153607D01*
X176105480Y-71174651D01*
X176115970Y-71196829D01*
X176124235Y-71219929D01*
X176130196Y-71243727D01*
X176133796Y-71267996D01*
X176135000Y-71292500D01*
X176135000Y-72217500D01*
X176133796Y-72242004D01*
X176130196Y-72266273D01*
X176124235Y-72290071D01*
X176115970Y-72313171D01*
X176105480Y-72335349D01*
X176092867Y-72356393D01*
X176078253Y-72376098D01*
X176061777Y-72394277D01*
X176043598Y-72410753D01*
X176023893Y-72425367D01*
X176002849Y-72437980D01*
X175980671Y-72448470D01*
X175957571Y-72456735D01*
X175933773Y-72462696D01*
X175909504Y-72466296D01*
X175885000Y-72467500D01*
X174635000Y-72467500D01*
X174610496Y-72466296D01*
X174586227Y-72462696D01*
X174562429Y-72456735D01*
X174539329Y-72448470D01*
X174517151Y-72437980D01*
X174496107Y-72425367D01*
X174476402Y-72410753D01*
X174458223Y-72394277D01*
X174441747Y-72376098D01*
X174427133Y-72356393D01*
X174414520Y-72335349D01*
X174404030Y-72313171D01*
X174395765Y-72290071D01*
X174389804Y-72266273D01*
X174386204Y-72242004D01*
X174385000Y-72217500D01*
X174385000Y-71292500D01*
X174386204Y-71267996D01*
X174389804Y-71243727D01*
X174395765Y-71219929D01*
X174404030Y-71196829D01*
X174414520Y-71174651D01*
X174427133Y-71153607D01*
X174441747Y-71133902D01*
X174458223Y-71115723D01*
X174476402Y-71099247D01*
X174496107Y-71084633D01*
X174517151Y-71072020D01*
X174539329Y-71061530D01*
X174562429Y-71053265D01*
X174586227Y-71047304D01*
X174610496Y-71043704D01*
X174635000Y-71042500D01*
X175885000Y-71042500D01*
X175909504Y-71043704D01*
G37*
M02*
