G04 #@! TF.GenerationSoftware,KiCad,Pcbnew,(5.1.5)-3*
G04 #@! TF.CreationDate,2020-04-24T11:10:39-05:00*
G04 #@! TF.ProjectId,ESP32 Wroom energy meter,45535033-3220-4577-926f-6f6d20656e65,rev?*
G04 #@! TF.SameCoordinates,Original*
G04 #@! TF.FileFunction,Copper,L2,Bot*
G04 #@! TF.FilePolarity,Positive*
%FSLAX46Y46*%
G04 Gerber Fmt 4.6, Leading zero omitted, Abs format (unit mm)*
G04 Created by KiCad (PCBNEW (5.1.5)-3) date 2020-04-24 11:10:39*
%MOMM*%
%LPD*%
G04 APERTURE LIST*
%ADD10O,1.700000X1.700000*%
%ADD11R,1.700000X1.700000*%
%ADD12C,0.800000*%
%ADD13C,0.250000*%
%ADD14C,0.254000*%
G04 APERTURE END LIST*
D10*
X185420000Y-80010000D03*
D11*
X185420000Y-82550000D03*
D10*
X185420000Y-102870000D03*
D11*
X185420000Y-100330000D03*
D10*
X185420000Y-92710000D03*
D11*
X185420000Y-90170000D03*
D10*
X185420000Y-69215000D03*
D11*
X185420000Y-71755000D03*
D10*
X136525000Y-96520000D03*
X133985000Y-96520000D03*
D11*
X131445000Y-96520000D03*
D12*
X146639800Y-78433700D03*
X134620000Y-68030900D03*
X166659800Y-98845900D03*
X163078100Y-86067400D03*
X163585000Y-92745000D03*
X135088500Y-81807400D03*
X136810300Y-92794800D03*
X140335000Y-74295000D03*
X142240000Y-74295000D03*
X143510000Y-74295000D03*
X143510000Y-76200000D03*
X142240000Y-76200000D03*
X140335000Y-76200000D03*
X140335000Y-77470000D03*
X142240000Y-77470000D03*
X143510000Y-77470000D03*
X146685000Y-70485000D03*
X144145000Y-70485000D03*
X136525000Y-80010000D03*
X141605000Y-80010000D03*
X160020000Y-91440000D03*
X141715000Y-90562000D03*
X161613500Y-92853700D03*
X168589700Y-104907600D03*
X161671700Y-99038300D03*
X169545000Y-66675000D03*
X179705000Y-66675000D03*
X179705000Y-75565000D03*
X169545000Y-75565000D03*
X159385000Y-75565000D03*
X159385000Y-66675000D03*
X165100000Y-75565000D03*
X174625000Y-75565000D03*
X174625000Y-66675000D03*
X165100000Y-66675000D03*
X172720000Y-69850000D03*
X171450000Y-69850000D03*
X171450000Y-71120000D03*
X172720000Y-71120000D03*
X165100000Y-69850000D03*
X166370000Y-69850000D03*
X166370000Y-71120000D03*
X165100000Y-71120000D03*
X139725500Y-68931700D03*
D13*
X134620000Y-68483700D02*
X134620000Y-68030900D01*
X163585000Y-92745000D02*
X166659800Y-95819800D01*
X166659800Y-95819800D02*
X166659800Y-98845900D01*
X163078100Y-86067400D02*
X163585000Y-86574300D01*
X163585000Y-86574300D02*
X163585000Y-92745000D01*
X135470800Y-80535000D02*
X135470800Y-81425100D01*
X135470800Y-81425100D02*
X135088500Y-81807400D01*
X136525000Y-96520000D02*
X136525000Y-93080100D01*
X136525000Y-93080100D02*
X136810300Y-92794800D01*
X142240000Y-73729315D02*
X142240000Y-74295000D01*
X139897702Y-68030900D02*
X142240000Y-70373198D01*
X142240000Y-70373198D02*
X142240000Y-73729315D01*
X134620000Y-68030900D02*
X139897702Y-68030900D01*
X161671700Y-99038300D02*
X161613500Y-98980100D01*
X161613500Y-98980100D02*
X161613500Y-92853700D01*
X168589700Y-104907600D02*
X167541000Y-104907600D01*
X167541000Y-104907600D02*
X161671700Y-99038300D01*
X164534315Y-75565000D02*
X165100000Y-75565000D01*
X160655000Y-76835000D02*
X161925000Y-75565000D01*
X161925000Y-75565000D02*
X164534315Y-75565000D01*
X141715000Y-90562000D02*
X141715000Y-88155000D01*
X141715000Y-88155000D02*
X143510000Y-86360000D01*
X143510000Y-86360000D02*
X150495000Y-86360000D01*
X159385000Y-77470000D02*
X159385000Y-75565000D01*
X150495000Y-86360000D02*
X159385000Y-77470000D01*
X160020000Y-91440000D02*
X160020000Y-80645000D01*
X160020000Y-80645000D02*
X165100000Y-75565000D01*
X133985000Y-96520000D02*
X133985000Y-74672200D01*
X133985000Y-74672200D02*
X139725500Y-68931700D01*
D14*
G36*
X147193000Y-80518000D02*
G01*
X135382000Y-80518000D01*
X135382000Y-74350001D01*
X139765302Y-69966700D01*
X139827439Y-69966700D01*
X140027398Y-69926926D01*
X140215756Y-69848905D01*
X140385274Y-69735637D01*
X140529437Y-69591474D01*
X140642705Y-69421956D01*
X140675824Y-69342000D01*
X147193000Y-69342000D01*
X147193000Y-80518000D01*
G37*
X147193000Y-80518000D02*
X135382000Y-80518000D01*
X135382000Y-74350001D01*
X139765302Y-69966700D01*
X139827439Y-69966700D01*
X140027398Y-69926926D01*
X140215756Y-69848905D01*
X140385274Y-69735637D01*
X140529437Y-69591474D01*
X140642705Y-69421956D01*
X140675824Y-69342000D01*
X147193000Y-69342000D01*
X147193000Y-80518000D01*
G36*
X180848000Y-77343000D02*
G01*
X158242000Y-77343000D01*
X158242000Y-65532000D01*
X180848000Y-65532000D01*
X180848000Y-77343000D01*
G37*
X180848000Y-77343000D02*
X158242000Y-77343000D01*
X158242000Y-65532000D01*
X180848000Y-65532000D01*
X180848000Y-77343000D01*
M02*
